<mxfile host="65bd71144e">
    <diagram id="kroa2Enb3uIKMZ7xdOIZ" name="第 1 页">
        <mxGraphModel dx="1105" dy="1831" grid="1" gridSize="10" guides="1" tooltips="1" connect="1" arrows="1" fold="1" page="1" pageScale="1" pageWidth="827" pageHeight="1169" math="0" shadow="0">
            <root>
                <mxCell id="0"/>
                <mxCell id="1" parent="0"/>
                <mxCell id="10" style="edgeStyle=none;html=1;entryX=-0.028;entryY=0.324;entryDx=0;entryDy=0;fontSize=18;entryPerimeter=0;exitX=1.022;exitY=0.338;exitDx=0;exitDy=0;exitPerimeter=0;endSize=14;" parent="1" source="2" target="4" edge="1">
                    <mxGeometry relative="1" as="geometry"/>
                </mxCell>
                <mxCell id="2" value="" style="rounded=0;whiteSpace=wrap;html=1;" parent="1" vertex="1">
                    <mxGeometry x="60" y="-280" width="120" height="820" as="geometry"/>
                </mxCell>
                <mxCell id="3" value="客户端" style="text;html=1;align=center;verticalAlign=middle;resizable=0;points=[];autosize=1;strokeColor=none;fillColor=none;" parent="1" vertex="1">
                    <mxGeometry x="90" y="-335" width="60" height="30" as="geometry"/>
                </mxCell>
                <mxCell id="13" style="edgeStyle=none;html=1;exitX=-0.035;exitY=0.595;exitDx=0;exitDy=0;entryX=1.003;entryY=0.624;entryDx=0;entryDy=0;entryPerimeter=0;fontSize=18;endSize=14;exitPerimeter=0;" parent="1" source="4" target="2" edge="1">
                    <mxGeometry relative="1" as="geometry"/>
                </mxCell>
                <mxCell id="4" value="" style="rounded=0;whiteSpace=wrap;html=1;" parent="1" vertex="1">
                    <mxGeometry x="990" y="-280" width="120" height="865" as="geometry"/>
                </mxCell>
                <mxCell id="5" value="服务端" style="text;html=1;align=center;verticalAlign=middle;resizable=0;points=[];autosize=1;strokeColor=none;fillColor=none;" parent="1" vertex="1">
                    <mxGeometry x="1020" y="-335" width="60" height="30" as="geometry"/>
                </mxCell>
                <mxCell id="15" value="deleteEmp" style="text;html=1;align=center;verticalAlign=middle;resizable=0;points=[];autosize=1;strokeColor=none;fillColor=none;" parent="1" vertex="1">
                    <mxGeometry x="515" y="-320" width="80" height="30" as="geometry"/>
                </mxCell>
                <mxCell id="19" value="Emp" style="text;html=1;align=center;verticalAlign=middle;resizable=0;points=[];autosize=1;strokeColor=none;fillColor=none;fontSize=20;" parent="1" vertex="1">
                    <mxGeometry x="525" y="-360" width="60" height="40" as="geometry"/>
                </mxCell>
                <mxCell id="35" value="" style="shape=image;verticalLabelPosition=bottom;labelBackgroundColor=default;verticalAlign=top;aspect=fixed;imageAspect=0;image=data:image/png,iVBORw0KGgoAAAANSUhEUgAAAS4AAABSCAYAAADq1zlNAAATR0lEQVR4nO2dfUxc15mHH3s9i5k/sLGHOJASAgbZyDamXFq8cWobWw6VE0B2pUylxrKtqCjBWjmqaWW1aSyibFulcZRoa6dKtCJWbEUTZXGBFC1kE9IkJqE17QTshXQwCGM+XAYYbHUGa1J1/4B7uXc+8PAxM77J+0iI+3Huveeej9953/ecmVmmKMo/EYS7hPb29nhnYdEoihLvLHzlWR7vDAiCIMwXES5BEEyHCJcgCKZDhEsQBNMhwiV87dm7dy+XLl1i79698c6KECHL4jmraLPZKC0tpaGhAbfbjd1uJz09PSidz+fD4XDgdrsByMnJoaioiNraWrxeb9B+rMnJyaG4uJja2lotj5Fcs2XLFmpra7X9oqIinE4nO3fupLm5GZfLFdU879u3D4vFoh0bGRnBYrGwdu3akNe0tLRw8+ZNraxzc3PJzs7G4XAsqAxCsVSzis3NzVy8eJHq6uqI0r/xxhukpaXx8MMPL/rZ85lVDOwDJSUluN1u2tvbKSkp0co3VJna7XZ6enpob2/HarVit9uD6q6lpcVQpmq9j4yM4PF42LJlS9B9BwYGcDgcIfMbr74W2F9WxOzJERCusAKZmJgAoLKyUutM8cJqtfLQQw+RlJTE4cOHDec6OztpamoypA1sXFVVVfj9fj7//HMAent7GRkZ4cCBAwBREy+Xy8Urr7wCTHeeAwcO0NbWpj0vXAPNyckJeb+CgoKQZRDYcWKBajn97ne/C3n+jTfeYN++fSHP/e1vfzPsNzY2Br3TUpKRkYHX69WEafXq1dp2U1MT7e3t2O12PvvssznL0ev1UlNTYzhmt9sN2+np6fh8Ps6fP6+JZChhCyVmKi6Xi4KCAr7zne8Y2na0cblcZGVlYbfbcTgcrNi1axcffvhhyMS7du1iaGiIv/71r0uekaNHj5KYmAjA4cOH51R5PSUlJaxevZpz586hKAp5eXn86U9/WvL8RYIqRB0dHYbKVxSFbdu2BTU0feMKHEFsNhvr1q0DwO1289prr0U9/2o+gSALLykpidHR0YhGVUVRsFqtjIyMMDo6GrMGffLkSY4ePQrAtWvXeOutt3j66adJSEgA4L333tPSXrt2jSeeeEIbIKItSJGSnZ1NT08PMN2eAPr7+7Xzbreb06dPa/uBg196ejrFxcVBg2QgDodDs+7mQzgvKD09PUjg7pSHxdLU1MSBAwfIyclhxYsvvkh1dTUNDQ2GRKWlpZw8eZKqqqqoCNfp06cX5F4MDg6SnZ3NsWPHaGxspKamJqwVEE3UBjQ0NBQ0Ym3bto3m5uagdyopKQmq7KqqKsN+ZWWltu33+zWrKBqo+c7Ly2NwcDBkHtXtcAOLxWIhNzeXTz75hMHBQex2O1VVVTGztJxOJ++88w4HDx4E4C9/+QtlZWWGNBUVFdr5cAS6ls3NzQwNDUVV3KxWK1arleLiYoqLi7Xj4Z7p9/u1Ng9GV3EubDYbdrvdYCiMjY0xOjoa9GyYrms98bCaw6G5itXV1Zw8eRJAEy9VtKqrq8NaY0tBVlYWSUlJ2O12rly5QmFhYdi0qppfvnyZy5cvoygKDz30EIODgyQlJRliNbGgtLSUyclJsrOzQ5rW5eXl2rZa8U1NTTQ1NWG1WoNcs8BYR7RRFMXQYCsrK7XGHDhyKopCdnY2MG2yq3lub28PatA1NTWaqKtpYo3eEvN4PJw/fz5kOr1YDQ0NsX37dgC2bt3KmjVruHjxYlTzGejeKYqCzWZbsNUSyjrq6enRrLZQhsK777674Hvriba1deTIEdauXYvP56OpqYkVqlip4qVuh7LClhKr1YrFYmFsbAyAhIQEXnzxRe1cYMcOJFSniSWq6b1nzx4aGhrCulT6OENgQFwvbt3d3do91JhTS0tL1GJcavmpotTT00N2djZ+vx+YroPS0lLef//9oGtDBfYDGRgYiGv9OJ1Ofv3rX/PLX/4ybBq9WPX19bF582a2bt1KUVERCQkJtLa2xiq7wLTbGMoFg1mLN7DsVVdxbGwMv99vsI70bQ+mDYXExET27NnDxYsXKS8v16wwPaplp297DocDq9XK7t27+eCDD/B6vZol19PTE/XwQE1NjTa4ezye6eB8oHhFW7QA7rvvPm37448/1uIkegFISkqioqJC68ChXC09ejcL5p4diQb6zh7KanK5XDQ2NlJcXExjYyO7du0yiPOBAwdITk4mKyuL/v7+qM4qBmKz2fB4PBGnHxsbCzuzpLfQ7mZaW1s5ePAgW7duZXh4mISEBO655x5SU1MZHh42xMiijRru6O7u1oQBZkMSahxMP6milrPaxgOFSt/2rVYrq1ev5ssvv8Rms7Fp0yYtdjYfa394eJgf/vCH+Hw+LBZL2BnPaBO3WcUtW7bQ399PSkoKHo8Hh8OhVYQqmjdv3qS/v5+srCxcLpfmagWiBuxjKVILRZ19+/73vw/MWl0tLS38/e9/Z8OGDaSlpWm+fKxQy7WkpASYjb9EQmAHMgN9fX20tbVx8OBBioqK6OvrAyAzM5Pt27dH3U0MpKCgQBOn3NxczWrKzc0FoKurS0urt5LnQj+QZmRk4Pf78Xq9vPfee2zfvh2bzXZH0fH7/aSmpgbFYlWLTx+Pi2UsbAUYY1pAUMwrGoyPj9Pf309eXh4wrfqKotDS0mJI19vbS3FxcdhCzsnJYePGjVgsFkpKSmI6RRtIJJ1d7dyh3GE17tTS0hKXUUxPcnKy1tDvhM1mIz09HUVR7pogbn5+PufPnw9pRa5Zs4bW1lY+//xzfD4fqamptLW1cfv2bS2+FUs3MScnB4vFQldXF16vV7Ocbt68qU30BNaD+l7p6elUVVUFBdRhtj0mJiaSm5tLV1cXeXl5TE1N0dDQELQ0RxWhsbExQzvt7Ow0xMIC264a2ojlsqQVetHSC1W0xevDDz/EZrNp+4qiMDk5icvlMnR+dd1IRkZGyFm6jRs3av643W7XZhtj4Wa53W6DlaEoCmvXrjUs75jLCrFYLAaLS40x3bx5U2sc586di/p76FEnD9RGXVpaisPhMAiSPkCfk5NDSkoKIyMj2nl9/GwxweZIyM/PJz8/n2vXrhmOO51ObTFpRUWFdnzv3r2kpaVpFpYa56qurqawsJCTJ08yPj4eMzfRarVSVFREW1ubJk4OhwO73c69994bsi3bbDays7O5ffu2IRyiDnz6SZeBgQHGxsa4fv26wVDQTwyEcxVtNht+v1+bcQ7Hnj17Yh7aWBFKtPQxr1u3bkV1ZhGmF+FlZGQY3CO/368tNFUDx2rnUStobGyM119/3VDh+pXBsXJd9Pk5c+YMXq+XkpISqqqqDKv+AwOrfr+furo6TXQBPvnkEwoKCpiYmNAC5bFEzWN3dzc1NTWUlJSEHAzUwKzX68XhcIRcHxSJK7JYApdDAHOulv/BD35gEKbApQexdhNLS0sZHR3VBmx1wOjs7OTPf/6zVheq+NtsNjIyMpicnKSwsNBgac01YRVoKESCoih4PJ47Wt2xjiMfPnyYZcePH/9nPBagQrDS6zu2aq7qC00ViEiC7na7HY/HE7XRXj9RMFd+9O6fvlHpze2CggJDXtV7R3OKWV/WnZ2dfPzxx9jtdqxWa1DAVXUFWltb+da3vqVNS+vTBS6vgOCPakXCYlzNiooKHn30UW0dV0VFBT//+c9JSEjA6XTy4x//mN/85je8+eabPPjgg2FXz+vRW26REulHftRYlSpQQEgLS20PPp+PTz/9lAceeIDa2tqg9Vmh0M8Q6vuboihzTnQNDQ3xj3/8wzDRdKf+GW30yzni+llFQQjkbomRLQb5BtToI98OIQiC6RDhEgTBdIhwCYJgOkS4BEEwHSJcgiCYDhEuQRBMhwiXcFehfgmgWTF7/s3CXfXVzYLwr997mdv374p3NhbMl7cn8bc9g+X2RLyz8pVGLC7hriLWXwi51CxbtizeWfhaICvnBUEwHStG3fE1aTOzsujr7Y1rHgRBMBcr4m3arrBYxLwWBGFexD3GtXz5v8Q7C4IgmIwV8TZ2li9fTrzzIAiCuVjxzziH5pctg3jnQRAEcxH3GBcsCxvjutrzBeuzN8Q4P4Ig3O3EPcY1l3AuXx737AlfAToq8w3/53udcPchyiB8bcg74xQx+opgKuEqf7WVvl4XfXUnZg/mp3G2RuGFMih8chP1Net5bMmfvIYXajZxPKI2v4YXahTOPmmFsvXUR3wd7NuxkY7KTI6TyEsH8+koTY4wf8m8XZnPBzsSYXMmHZUbeWldZFfOlpmV4y8r1D+zJsJnLoJF1Nnx0nw6DqayT//OOjoq84P+9MfV7UiuuRNz1tf+0/yx10Vfbx0/jfDdhMiJ8mcVN1H+1HbuAwY/eo26K4u41f7T/KxklNezHuQX+uPOKW7o9yd9xHc56xQ3JmGdbn/AGdmVjeO3+ZVu3z05ZTh/vDSfQ+kzOwP95DWoi4enuH4LZn/D5TaDhkIJz6Uh4zMm3FNhUi4hi6izrskpWD277x73BaXJO2Ms8I7K/KBjodLr04UTOf195qyvC0f59oXpwfbluhP8olyfUlgs0bO41m3n8afymKi9yNy/yjYPRq8TWvumuHEtuBPGkxtDXrjmY96fS7g1RRc+BgN+x3Tfjo0cop+8M07yzjg5S0aQteEe98HoFPP+QbBJH714GYjpb9Auos48UzTOiHW0UAVKLe+wwhemvlTq+kejlMOvN9GzuG5c5NyrF4FNlEftIQDj/OTI+PSm8ypl9QGn89M4eywV1YifaOvi0G9nflKpbD31+2eH7+4L7fxEu34NL9RkslE7a7QSHntG4fH1MzuTwzz39BCXAPBy6mn1l2qGOHQkOMflr7bycgn8z/EHeeqC7sTlPvIuT282Njg5pZ1I5vBm+N//ntD2i9LBtno1+/DRiI8fval2rGF2nwl+ZljqZ8vs0vPtvK0ez0/j7GHocKeyc/0Uf7gwQd7+VJJ172ooA6b4wytXOOXUXa8rdwCu9lH2/Dh3rDNKebXtJb5LM08XHaVOd6bxo24aZ7Zn39mI3kqar/U1L8LWlxBtzPO1Nhu+QcrIp4ZGfEdmOs+NC+0cCuwcZeup3w/njsx01vw0zh7bxPFrVzjlnBYtLrTPdKo1vFCTql1a+OQmHnF3Ufa8V9v/9yc9s4K41KxbiY3btN0A1qXywfdW4fzoBrYdK8kFrSMvOatSyevu4hy5PL4/kXOvDPPIsUSygEv5aTxiG+a5I6pg61nDC/pyL1tP/W4fzz0/Hq2cGgh09+LKF9cZ3Z9OOcyv7QpzYgLhOsG7vU+wqfO/yJxnnKBwWzLJV/uCRQsoTFvJRFvfrIXh9NAxmcq6+4H7k9k4OcxzIa4DKzs3riR5VS71RbrDV1cCkQlX3VMPLqwRb86kYwecPdPNqXWpfLCQe8wLD7//rReegYm2Yd5mNY+op5xT3FiVybM1yUZLKxyrZgQvouc28FRRw52TzZMltbYi5cJRvs10oP5nTT/i208t/Xt9HTGBcP2KR7N+BSfq6Ks7MW/xig5TkXXWpeLGFG7WceibNzhxZnjawkpZie3WFF0xykIwqrs3Mxu5Su9qj3PpaiaP71eo3w9qeb095/2ih7oMIlQQPpC53MwFsf80fzwB/5GVIxbXEmKe5RBfXGf03vR5xcsufTbBxPrUkMsRLg1NkVyUOjsNX5bKzlUeLtUzHVRflczOfJjumPpYl5cB90p2Hk6jcIGvMr2so5VX90d6xQRtA+Du98y4hYm89M1Vuv1In+ni3RN3Tjs/pmN6z7VNsS7NOn1IcyPbKTvSTtmR+Yp8Ka+2uehrO73g+KhegFShCuc6qksg7hiIXwgbvkHKyICI1hITRYtrdikEADsqqNxxi8u1b/FRhFP1i8Y5xKELidQfU9g5c0gLztdf5bm0TTxbo/A4YLAKnEP8Z1syz85c132hiz/sztRu+/bzXaS/nMuzuriXMbC/9Jxq+IL7Dm6go3J63335C3Z/FLwUIBx1/aO8TAr3ZJQCS+CuBExsTE9QzLjKziF+71YM5RNrKzWUdRVOvKIawBeiwrIHMrPj+hHn3E2b6bpyOeS5vl4XmVk50zuqyR0wyyREynSskNdyeDTa3nZ+GmePJfL7I1c19/CxZxQeR51VjA6BghNOgO7kKoYSMlig63iijr5/+/QuCXF8dTCPqwiQ8k2+G7F7Jaj8tM5FX6xEC+D+ROMyCKyk26K/uDVQWMIJTSSLUQOPLdQCK89IWdB1wtyYx+JCXf+UAguYYRRii3GNF7o1XF8T9p/mj6ceJoX/4/WscuOnPYRFc1cLlyAIQijM5SoKgiAgwiUIggkR4RIEwXSIcAmCYDpEuARBMB0iXIIgmA4RLkEQTIcIlyAIpkOESxAE0yHCJQiC6RDhEgTBdIhwCYJgOkS4BEEwHSJcgiCYDhEuQRBMhwiXIAimQ4RLEATTIcIlCILpEOESBMF0iHAJgmA6RLgEQTAdIlyCIJgOES5BEEyHCJcgCKZDhEsQBNMhwiUIgukQ4RIEwXSIcAmCYDpEuARBMB0iXIIgmA4RLkEQTIcIlyAIpuP/Aba+eJdMpdCNAAAAAElFTkSuQmCC;" parent="1" vertex="1">
                    <mxGeometry x="400" y="260" width="302" height="82" as="geometry"/>
                </mxCell>
                <mxCell id="40" value="" style="shape=image;verticalLabelPosition=bottom;labelBackgroundColor=default;verticalAlign=top;aspect=fixed;imageAspect=0;image=data:image/png,iVBORw0KGgoAAAANSUhEUgAABBsAAAFACAYAAAD9M3RXAAAgAElEQVR4nOzdz0oj294//vf5cW6hRMTQWznSkOBABRu9gCSD1jJ30GBHCA4eH53UTo+3OxPFSQjHtLDvIF2t8MRMvrOIgi2cnASaQEITEbEuon+D+reqUlWpxFJj7/cLGvY2Vq0/tapS67P++I/fZv71E0REREREREREEfn/XjoDRERERERERPRrYbCBiIiIiIiIiCLFYAMRERERERERRYrBBiIiIiIiIiKKFIMNRERERERERBQpBhuIiIiIiIiIKFIMNhARERERERFRpH6dYEOmiKuOivyQh+XVNrojHDee1lC6bONMefqU9Hpro6s+Q2JGeleltcefaMR2Mlwe9OvQ7bTR7dRRyoyQ2CgU1Ugzorqi8fGIdktERERE9BIiDTZYHVDjn9XpFTpBzs8UnLl+rv8b/qVaTi4A55+xH2WBRiCX6k/QAQ8ZRMiksYQayoWIk/ewL89hZnYOZWyie1mEHMlZny9Y8rROkXs3h5nZEzRHOHq0NqTgbEtCdU9P9yH1+/MFOZ6E/Wzobw/O54bjc/ezxl2P1udDPGMUta+NW4GnTBFXXs+wyyLkQc83j2P92r7X800u1YW0hhFUt0RERERE0Ygo2KB3ErM4wczsnPXvvdjp1WrY6fusgPfG/++ca0DDPF4eMmigIJsCrmunQ+dc7zQPm954yn9IAt+qUJ8xzX35BE1pAelX3bGlsZIp4qqzjt6eV7BmDaXLTeDYfJacAFvC7JGCLDyDTtCcX7c+k0t1dDO32DluRZfXyjaWjfTKDUA739XTfrcNNdTzrYWymd/jFhJbXjNh+p9vebWNo6mv+nmHEVi3RERERETRiSbYoHxEWmqhLD/DkLpn+itINL4iVxF+5h41FEf/3KOfHqOWQTM07NFAfYRQHOE8SknA/KbndHZrJNJrZNWVJ/M4/ZhDpCUgsRU0NV/B6nwLX3LOgItfmnm1jbOSUUeqYpXZnnGiIi/myW+kPRPDhJCHs46KkpHmmWKOoApldV0Xsy7DlTNtjxQHXjNX3YppHiQheZfEk3je7Lzzs8DrGcg54m21kUe1oSZ6moSl5Brk0joS2g2qFWeqjjqy6m/ANcsUcXVZRF5I186P89j+5RvicpIhRuAr21ieXXXez1bVfURanL2jrCABvdx9MjFMQEPPOI+aWzWCAGOqcIEmJMTeun7u8Xzbl+cwM8rzNqhuiYiIiIgiFEmwQX4jAY0LfbTOb924lMRRiOnCw1tDKSOh+pfrxVsYcZyZnUP5PomsmaY4+rlXg3ts0FwiYH4+kTE6SQXZGH3UO2J5dRMT57tYzp1a6TlHMOf0z4x6OZr6ap/3GMhaHXijDHtzfcepuVXMzO6iqgFNazS3v7Mgl9Yx4V5GEpgmkEhN48teDdr8JjbudlFuABNvzGsWRzZza8xGcY4QGyfXO6UHSeD8TyE/caSNEdfEljmCKiGWMY45mMaXWXFUWq/LMOWUUgvo7c3pvwf7euZV56yanXMJWbNjmyni6mAB13se19tnCvyZz3nLjfB1628Npct1oxx6Wa4XjSUPj2pDp8gVakDqEEeLN9hxdarlUh0bd7t2HX1bwKeSfa39rxkAKYmsme5eDUh9FIIccaQXb/R24vhsDaXLQyx9s9Ms3ydxZOTXHdALG4yQ30jAfQ8q7JkK5XMN0lTC+h3r3AdJPBxHNGvJ9fxyB54ioawggRbqjkeZz/ONiIiIiGjM/TPyMxZkzBT0F/4N8edara8DFAnlI9K4wU7fSJ2Cs84mEsJPtLs1AIOXWsiluj66bGkhAeh5L8jYeVPHUaetdwhz4ZZu5FfiwHwc3c6mkKFbyABUnKJ3f4jsQRtXyV27cxmaMc16z3lcUJoAoJ1/xj7S2IAxI0I9FI7WUC2Y16uAemMTq+4RV7RQ7luCoukdo+Q6YIzGnh2Y2VxBAnEkOm1khd/vZQCEGGnVrKCGXl9LRmAkNqmhWrA7Y2rtBp9S0/q1Ty5Acs96MVW2seybroLVeQ3VPe9OXvD1DJBJY0mSIB200T2wf9zsq9sh01RUdLckNBsapPkFpDNrSCuHiFXm8L6whvSiBEk6RLcjXOOGeXcEXDMAgDBrqVLFtfK7HoioGMea7aTSw8PBgvFZAjHJOdNm/6KFbCYGGXpA7zFBACsQ9K4AuVR3fGafWw+IncG1pGsUrudX3/NtZHFkrfvB437yfb4REREREY23SIIN6g8NR4uxwR2tJ5BfiaNZkfvSzaubSDROrKnGoTsHmSI+pYDq3pzeQc0UcXUw3fdrmqZBmhyuzM1j/06P2UEylxNAyPtAxjTr9x4dEr80E/0/GlIB72dHOGyYcj21TBFXHssqgq7TKL/X5xGBN+8011DKxK3P8mob2YNDABqq361EUd3zmj7/MjsE5lWP2QEh6kX9oeEotYmN810r0JeYkqDdee1AUED5fB2f3oQLMr4Mr4Cdze/5RkREREQ07qLZs6FwgaaUFKZlP5NMERuTXn99YQ2xSdgdkEwRG2GnPb+dhiSs885/cHVGFRVHizf4490qyvf9ZVZ/aIARhBA17zRr+UUQNbeqT/V3nOMUvXtxiYPIf5p12DQHyhSxMe+a3p0p4mrYP+v4/Rba/GbAEpqgcgYdIyH9wT5p/kMSkrGsR/2hAfMrRh0oOBODC66lNs7NS+09EAA9CCR2jkeu20oPDwPuleHbkLPe9mV9OQqsfRuMOlIi+Kshxki7ez+Ifk30tDg2rHLqARHN2MDUsVTJ/BcmAFO4QBOavVlipoiNec1nc1gF2ZSEhx/jGmgYwPf5Foa5Xwb/XCYRERERvYyI/hpFAe9nT/CQOnSsaXa85D/Bng3+f33hFLlKC5KZn4NpXIfdtb3wGVVNn9rc7bSxcVezd203pqqb08b3ZaPM4lr9wmdUYZfV3LdCza2i3LDP27/RnrB2/WAB1wVnx2v/L309ft/GiQGdv+A0B5GQPhDysxfB2vfKNpaPW8IGkP3r9H3LGWBf3kV10t5QMTtZw445e6IgC3UwzC789h4I3U7/zv/hrucmElY9mmUp4P2eWEaPDuEIbchqi522vtHmfQtNKYkjo3735V3HOYe7B4U0t4ByqFkZp8i9c+fpJOQSIbH+zA1Dxfq7wZKjbdozNpx7Qeh7Y1gzQcz9ZLbidpki+7Ot0Qv66zLmRqFHKcl+tobaMySobomIiIiIovOP32b+9fOlMzESY3nDl8f+2UpF1f8c3jjvUu9L34RPX5cf5XkVnHXW0fOcdk9/K1HdZzQc1jsRERERvXLRbxD5XAI39wsvvxIH7i9eYaAB0EePX+kUcSLyF9HzjYiIiIjopbzeYMMjODan02rYeTcmGxYSERERERER/QJe7zIKIiIiIiIiIhpLEW0QSURERERERESkY7CBiIiIiIiIiCLFYAMRERERERERRYrBBiIiIiIiIiKKFIMNRERERERERBQpBhuIiIiIiIiIKFIMNhARERERERFRpBhsICIiIiIiIqJIMdhARERERERERJFisIGIiIiIiIiIIsVgw1hYQ+myjW6njW6njlLG41cyRVx12rgqrT1ftp46TUVF97II+bnT/UXkVZ86UlR0O22cKc+fp0iNXTnWULpUkR/4Ox55VlS2ZyIiIiL6W4k22GB0DsblpVou1dFVx6anEuAUuXdzmJk9QfNZ01Vw5hfceAb5lTialW2oL5P84/kFSx4pXLtVsDrfwpfcacSpv37R3/d6AOGqlADub4FS3f+6Z9JYQg3lgvH/iopuRw9QPPxI4GwcgidGMC8wuOkjr5rHtfvr2Hj+m+UlIiIior+3f0Z5svyKhOpxDUuZNGScvt5O5DiqbGO58gulmSliY76FL149tpco6ysjl9aRaHzFe68PCzJmCl4fvDJjU45T5N6dQi7VcTQvQbvbxcw77yBP/kMS+LZrP/sKMmYKCs46m0gAKM/OYf+5su1JwdnBAq735pCrQA88HKjIV+SB+ZJLdWRxgplZ/aLoM2uaWM4ZdbN4g51j4GjryQtBRERERK9AhDMbFKxO3qBaqOIaC0i7R8usUa92/9Rox0iba2aE6zP7OAVnHRV58bzmSJtxzFFKAuY3vc9rLl0YcmRaLtUd5RDPmVfbOFMUnFmf2yN8cqmOq5IyeLmEB3E00XNU1Lduxbw486OfcxMJSEgf+H3ul6a47MNZh3o5i5514KjH5AJw/lno4LjO2Zeu+3PneR0jruJnmSKuLosoDarDoRj1uhUHpCSOvEZ6/dpt39IA/VxXpbWQ7Vavi/QiUP1L7Im7r7WrfbnyY18zpX+0PVPElU9bGHTv+o92u441rkteuJ/scgYtK3rsfT8KPT+f8BXVRg1f8LtPu/aYbaKo6HZWUD9uoXl8gVWP/OjPlOFnGLmvS5hymkGqnBHMk5MLkBDH6sB7QkE2JbY5BavzgLSYhgxAza1i5t0rnqVERERERJGLLtigrGDiWxUqTlH9BiwlhRdfRUV3S0J1bw4zs/q/9+Y7a6aIq4MkHo7tz5atl3UFZwfT+DJrfnYCbIkv+XFkM7fYMT5rzq/rL+yVbSzPzmHnXAMaJx7nHZ2aW7XONzN7gofUR0enI7G1jp5RznIjjg2hAyClNhGr6J/tnAPpD+F6vfvyHGZmd1HVPD4MqlsU8H7W/vnOuWTlRz/nCZrQhGPt0U3/NNdQujzE0rdd67zl+ySOhE6mlEoCx951YGQa2ZTmWgJgLiUxj3Mf8hHp+xOh7u285tW2MeJqlzMrBpGkJNLm58ctJDKPXfpg1OtxC9BqRvubw4xsd8R8221B1vNg/H9e3cTE+a7eNsO2W+Uj0vd2h9GRp1mf62acW7xmWUU/rnyuIbFiXz85uQCpceFqC8a/vRomhPrLf3Deu3YdYEDbBCAlsYE/rfPCupcGLSt67vtez89yrglMTgO5VUf7s+qttI4JRwAN+vU2fnfiTRPvI3oOudu8eL+4gxBicCkxJUG7a1q/dzT1FeUGMPFmQKAiE8MENPTM2RCddfSOa9CkaSQeXRoiIiIi+hVFFGxYQykTx8MP/SVard0AxogXoK/N187/dHWOdHrH5sTZCTEpK0ggjqz10qyPxMesEUAN1YI5mlZAvSEh9jZsno0OzbCjcY6RWnd+4Cjn/kUL0pTwKi6UU63dQJuMPXq9f1DdumcDHKUkZ35GkkBMco7e7l+0ALEsQjmbd1pfmvro6sVw08m/30Kb3/QYUV5DbFJzjPKrtRtXJ6iFstkJ/n779B2kQe22IOsBkY7eYRyu86nfa82LYdcXOGc+ZOftDqaa+4rm/IpRr/2zJhyzeQ6SkIT6a95pSGx5zGjAoLYJAEI7qmxj2aMD7+0x9/1jnCL3zi+P+sj/dc3nWhZk3+usBzBXA+qpP63Vec01s8XmCA6Z/xzPuQRKl21s3O06g0OhklbRPZjGl9lV5L4PdygRERER/b1EE2zIpLEkQe90WB0Sj6UUo2icuF6ch3kpj5qCs604msf2iPXzbug4HLn0O9KwR953zr2mRjw3ryUAIVgj8/pU9FGmnT+rEO1W0zRnkCYM9waEIeXVTSQa3iPheofdmEqfSWMJN6iaec0U8SkFe3bCXg1iK7Jm+lys9C2p+VtRVhzLE15S0MyG5p1mzbDSgx9riE3CChT7qvTwYM0oMQIub6chabdj/QwkIiIiopcTSbDBnJ0gdq52zu2lFPsXLUiu5QYmtXYDzZwG7WaMZodaY29sOFgXOmHqj6DO3Ah7NphTiY0RPbm0HjBCHjwCrW8kV330Gueguk1MScB9z0hDQTYluX6jiZ427KhwEz1NXBqhl1MLWxbPJQDD0JcLlK3R7FP07iXHkpT8h6RjGcDgPI34V1T8ZkkMareKiqPFG/zxbhXl+yQ+udINarf5D0k8DP0XPPQOpTl9Xr9XnL+x/1cNEysK5OSC8/xvpyGZ0+eN9N2tCICxXOAETaE+gtpmZEa97yP9iwlrKGWk4QNopqH/xKd+35rPV7lUR1a4nkEzG9TaDTQI9aV8RFpy1p/3/VBAvQHhPh/yviciIiKiv50Igg1rSC9KfZ1q9YdmdzSEaeN9G8VVtrF8rAmbFAovuZVtLB+37BkTfSOnwuaGBwu43nNNcS58RhX2Bn6P3iiuso0vDTvNo6mbvrXxUurQyKu+r4FjeYiwaZ1z+rw5xV3csNEcuTc7R4dIC7NHrPoLqNv9v2rG0oM2up119M5brgKdIlcR61e1ptL7p3mK3LsTPAjlTN+HXQow6hKA/o05s7CXauzLu6hOCnU7WcPOMNPDv99CA4ZfYlLZxpeGsFzCXEoQ1G7NfQyMZQD7slGX4jIEv3br0bEOR7/OVts8mMa1e5ZLpYrryU0cLd44Z00UPqOq2WXcuKsJI9nuTTs3gWPhHgy67wMF3Q/A4+77U/Tu9XPEopoZo3xEWpwNMiyj/Yn7ZgQ7Ra5QA4zrebR4g6p7jxM/lW0sH8O+JltAOeTylX15F9eLzuebdd+by8u24oC5hOjvOsuFiIiIiAAA//ht5l8/XzoTo1Fw1llHb+8ll1U45VV9HbRXx1su1XE09XX4NdK/EkVFN3OLnYH7ZOibUMYqc957eUTO3vQyis37nkpQ+3Iav3sjOhGUTVGH6mQHi6Kt6n8aE8ejnyN82yAiIiIieh7/fOkM0N9IQcZMmM5UJo0lScP1M2xAJ5fqOEpJ0M7Hv6O2L8+F6xwrK0hAQ/2XCzQ8lt6pT6AVUaAB0Gf6jN5uHO3vbxyHJCIiIqJfD4MNNB6MP4Fq7gfQPJ57llF5Nbf6a6w5V1RjCjsAaKjurUbUmf6VFPB+drx69L9M+yMiIiIicnnFyyiIiIiIiIiIaBxF86cviYiIiIiIiIgMDDYQERERERERUaQYbCAiIiIiIiKiSDHYQERERERERESRYrCBiIiIiIiIiCLFYAMRERERERERRYrBBiIiIiIiIiKKFIMNRERERERERBQpBhuIiIiIiIiIKFIMNhARERERERFRpBhsGEeZIq46KvJ9P2vjqrT2UrmKjqKi22njTHmBtL3qdhAjv/o/41jjenQ7bXQvi5CfJreRyau/SNshIiIiIqJXIdpgg9EpG5dOjVyqo6sO26NdQ+myLXQuX0dnkp6KgrMtCdW9OczMzmFmVsY+AFS2sTw7h5nj1gjn1NvYiwRbiIiIiIiInsE/ozxZfkVC9biGpUwaMk6hRnnyZ9Y8nsP7wkvnQlDZxnLlpTMRkYKMmXGq2yCZGCagof6r1D0REREREdEziHBmg4LVyRtUC1VcYwHpjPtj1TFbwDGqK05Jd8+McH1mH6fgrKMiL57XnMVgHHOUkoD5Te/zjljGs46KUqnuf86AcubVdv90fK9yHiQhwfs492h4Xm3jrOQ/pd+ZZhvdTh0l4drIpXrfzwbzmP1hlsdVfmcdice50wy4no8VULd6uh55NY85SEJCHNkh25C73s3rptf3IdISkNjyrgvHsRHOqnn4kRDKKrS/TBFXl0Xkg9o1ERERERHREKILNigrmPhWhYpTVL8BS0mhs6Ko6DqmoguzBjJFXB0k8XBsf7acOzUPxNnBNL7Mmp+dAFtiJz2ObOYWO8Znzfl1vdNmTHHfOdeAxonHeQezO4LuDl8c6cUbPc29GpD6aOcnoJx5tY0s7LzsnEvImufNFHF1sIBr87i9GjQhL/vyHGZmd1EVfyjmNWUeu4sqksgKHdvsZM2oH/345vEqco8cpc+rh0jfn1jXpAkN1T1jeUFBtso4s1eD1jgR6v0UuXfmMV58rudjBNbtGkqX6+hZ12sX14u/O9qQ/vstlIdsQ/o1s9OcyOjXWs2tCtfC/B37msilOjbudu128m0BnyLq+Ce27LKWG3FsiOeVktjAn1Z+He2aiIiIiIhoSBEto1hDKRPHQ0XviKm1G3xS7KUU+ZU4tPNdz06unFyA1DjBste0emUFCcSR6LSRtX6ooZcBUNH/u1rYNpZrFFBvbGL1bcj8Xuqjy7oWyuZafIP/MgohzUoPDwcLiBn58S/nGmKTGqoF+4Rq7QafUtNIAEByAVLj68hBAO38T+PYU/TuD7H0Zg2Ad6d4wvWZmluNYLmLhFhfvSs4U4A/3g2zXmLU6+lPDqrbTBpLkgTpoI3ugf3j5iPTBPSgwVFKnEPRQgIYUNdrSC9KkKRDdDuH9o8bCfhdz2HY7QTYv2ghuyKet4UvZiDlV1qyQ0RERERELyKaYEMmjSUJkLba6G6ZP9SQzgDqYzstjRPMyFEv8D9F7t3jO2/jTg9oJHHUaeMI0OtyiNkdfvYvWshubaLb2QQAaOe7rmCRMWOgEEUg44lpNey82442n5kiPqWA6t6c3rnPFHF1MB02Q6juPX72CRERERER0UuKZBmFOTvBmjY+O4edc3spxf5FC5LPtGy1dgPNb7r891to85vhdu3PFLEx30Jd6PSqPzRgMvZsf0nCv5yn6N1LSH+wC5L/kITUuMC+mc/5FeM4BWd9+wqMJv/BuTzFK2gz/J4NayhlnEtF3EsL5NLviFUe2WH2uJ7W/gpD7GMQWLeVHh6kZGTLFCxvpyFBQ88of/6D+3qeondvzjJx/1xCWgkqn7nvxZB/vtN9jkwczYvXsksnERERERG9NhEEG/Sp3+6Oi/pDszveBVnfo8Br48TKNpaPNaQPPDbpq2xj+bgVsH+CZB93sIDrPedSCBQ+owp9ZH/YTe/80wwQUM59eRfVSXuzyuxkDTtm578go9wwNyFcR29P3NPA7Fw6NxUME4DZ/6uGCbEckWy6eIpcxXm9HHWrqDhKSc76s9I0N2PcRMK6dmKgY8D1RBM9DYBkLD8JI7BuC3i/VwNSh/4bd/oxN7LcigOS0cbMdlL4jKpmbyq5cVfr26Ni/y8xXbsO9uVdR5vtv9Z6oAKQ9OU7Q5Cs9A6x9G13vP7aChERERER/VL+8dvMv36+dCZGo+Css44ep5z7yqttbNzt2jMPrM0SH1Nn+n4XsYqwp4WioruFvn0vhhPuesqlOo4Wb6Jf+vCaRFLfRERERERETyfCP31J42UNsUnXj1zT+0eTQMy1xkN+IwHarc9fmIiI+edM/9aBBmNmCAMNREREREQ05iL6axQ0fk6RK6RxdSD+ZQN988HHdVILeH+8gq5jM9AWyrNPHADgX0gAUMD7Wa59ICIiIiKi8feKl1EQERERERER0TjiMgoiIiIiIiIiihSDDUREREREREQUKQYbiIiIiIiIiChSDDYQERERERERUaQYbCAiIiIiIiKiSDHYQERERERERESRYrCBiIiIiIiIiCLFYAMRERERERERRYrBBiIiIiIiIiKKFIMNRERERERERBQpBhsoUnKpjq6qvHQ2QlJw1qmjlHnpfBAREREREf1aog02KCq6nTauSmuRnnZUo3Z88+r4lOHvJq+20e3Y/84UQA8KtNG9LEI2f1FRnf//qhjlcZQxjDWULoX6eTVBHW9yqW6XZZhraTxnxqoefPLkKGOnjW5HRf4ZsjNS3brLMHT7jJpHMNB133s/L57WyO0WcNbxq31+EREREYUTabAhvyKhelwDFtN8iaIh6R3p7GQNO7NzmDH+vS+Yn2vQkER2DPqVj7OG0uUmcGyW8QTYCje7Iq8eIn1/YtVNGZuvNyimqDhavLGu9c63BRyFChooONsCylYb2UV1cv1FZ6fIpTq6jjzNYUYu2L/QEK5ZI46Np75mo9ZtQbbzb7TNJjT0vj9tdkcll+rI4sSR5/eFwcc9ysjt1qOdvNuG+sTZJSIiInpJEQYbFKxO3qBaqOIaC0i7X/5do2aOEahMEVfCZ44OlOsz+zgFZx0VefG85kufccxRSgLmN73POyL3SKV4zrzaxllJyK9r5Mo9Ctc1R+0yRVyJI56u/w9Ks2+02zV66jy2f1RV/3y4pQT9o7XuEcWYkKeQI7mZNJakFsoBL+DXlRomVoaNNjhnEXiOKCbVgDZiHO/RoeirhzCdDuUj0qihbHaKlBUkIGEpOahtriE2qaH6l92b2r9oQZpKDE7T4Gh/Qh3IpTquSkWhnoZpJ+76DdOW1lDKxNGsmNd6DelFCZhfCdFWmuhpcWTNulY+Ii1p6FUGHiiUw6OcmSKuLosoqX5t2o+CbEpC81jGfrgs4OHHqUeexqFuneTSOhKNr8i9WN0GS0xJIfM0DnW7hvQiUN0L306IiIiIXrvogg3KCia+VaHiFNVvcHaeFBXdLQnVPY8RqEwRVwdJPBzbny3nzJdxBWcH0/gyK44Cix2hOLKZW2OU6QTNeWOEs7KN5dk57JxrjlFF+7yjU3OrjpG/h9RHx4tmIrWA6z1jxFUYiZdLdWHUfhdVDWger4Z6kQ9K0znarY9EWi+0ioqjqa/2scewO2lR1cFxC9r5rnNEcT6JWGXIkdy305C0WzSDfud7FddDj2IX8F4cBdfcAQ0J6UWjDe3VANf19COX6s4RznPN/tBzOrremZHfSMB9D6pxjm7mFuVzLUTQ4BS9ezEooXd8MBkLNYtILtWxcbdrXbedbwv4JFwXKZW0ZluEH31XcNZxztKwr59XEMwMyCQQk8wRcwVnnUPEKidoQkJs4LU9Re6dPquj22mjm7nFzmzIDtyg+0FKIm2OlB+3kMiEmOaeiWECLdQLZlk8AlpCwDOLk5Cj7y9Rt870syk4glvBv/4EdTvAvnyCplG3wwWSX6BuM2ksSRqQrLvOSURERPTr+mc0p9E7Pg8VvTOv1m7wSUlDxilUAPmVOLTzXc+OtZxcgNQ4wbLXO62yggTiSHTayFo/1NDLAKjo/10tmB3HAuqNTay+DZnfy0OkrYGxFspDdFi6W3HhB2J+AO38T6Ocp+jdH2LpzRoA7yDHRMBnw6TpJCFm1EF+JQ7Mx9HtbAqH3kIGrM62mlsdfSpvpoirlQssy64yNOwOVfNOQ3YqAbOccqmuzzgxNCvgAkoAACAASURBVI/1wJP8RgJwOyDBU+QqH9H9oAAXw2c3r/4OFFZd11loQ5UeHg4W9I6DVbcFvJ91N059RNMe4XQpyJjx6aPJSTMvesdz5l0BcqkeKv/78glWO4fodg71fJ+3gKleiOun51eSzGMNDfu6BF0zwKedKCtIaDXseJb1FLl3fm3b6GS9LeKqowfnchV9ecRgxr17f4KZ2QLyahtHHRWJEPfv4PuhhbK5/OH7LTRpGgnzM9c9qJ3vegQvjbaiqOiKnc/GibWsIq+20VXhWGYxPnVrM2c1vA85q+Hp69aLeW/qbaLbObSeJ6bxqts4lrCLmdlTK89nSuHpl34QERERvZBogg2ZNJYkQNpqo2u9eGlIZwA15MuqL+FFPTpBL5RBFJxtxYUXWgVnnfVQR6q1G3xKJXHUaeMI0MsV6oU6OM39ixayW5vWS752vusI3LhfvqNjzjrZHuoov+CG+kPDUUrogPgpfEb1MtzsA5E+sv8nlh/bHsPoCw4BgIbq3ipyPzQcpTaxcb5rXf/ElATtLnBOh8EZ+JBLdSyFOk5I/znKD6A/oGdonGBGbqKnbSK9NY3yrBH8ycQwAQ31Qfmzltvo9bAv7yJ2eYhVBUCIdj7y/eAXQPIMUPnbv2ghm4k5An7De6K6NWWK+JQCqnvDVVTkdevn3h1gM57niopupgi58Ji9EJ6yblv4Yj3zBwejiYiIiF67SJZRmLMTxI26ds7tpRT7Fy1IPtPT1doNtHmfqfHfb6HNb4Zb35spYmPenM5snPuHFnqaeSjGi6W5YZpcWkfYFfP5D86lIv0BFHMq7hpKShLWu25gmmsoZZzLU8QRweadhsRW8J4Jo+zZAAB5dR29KNcfFz6jKq7F93WK6jcJGxl3b8Cc/uxR3kwRn6a+jriMxjivY5+HU/TugYS5f4SiOmZr9G+0N4eZWaOjX7hAExqua6dW3jbmhf/XT9j/1zfcFBVHKU3ovOjMdfPOe0ZfgpFWHjF13Vga4jjv91tokrk/i77xpd029eUOffUgF6BfQw1oXFjtJ/8hCUn4f/+yAHBMW08g1rd037v+wtwPwyug3ghft/mVeH9neazq1vx9v70anrNum+hp/UuH/AJz+uwod3bHpG4rVVxrcT0opmcMq333PREREdGvJYJggzGl/MLZeVZ/aHaAoSBj51xC1mtDwco2lo81pA88NkCsbGP5uIXElt/mfpJ93MECrt2d38JnVKHPJhh2Xa+UOuzfPKyyjS8NO82jqRtUtYGnAgDs/1XDxJbXOmD3ec11wPD4zJ3mKXIVZ92J5VRzqyg34o56j2qTzOy85H3NRnaK3LtdVCc3HWXx6gypua94kNwdCz0AgL710wrODpKQ5sXzDtMpMs4rOTc9FdeLd7eA6nnIhoAC3u/dYMnRbkPOOBD3gvDZq0D9oedDX6Ij5nfXcS8MvUnf91toEAIsAFDZxh/nsNrt0rda8J4bYj5zq/a+C8ZeBqFmMPU9LzYx4d4zBE30NADGVH1Hmk9wP+zLcyjfC3W75QoozA8o57jULWAFv/z3anjOuj1F7t0JHqxnsb58Rg8a9u+tcLR4gx33BrNjU7enyBXE74BNIOSePURERESv1T9+m/nXz5fOxGj05QS9Z50aPrq82sbGnbAWOVPE1TAdTU/6lN9YRZi+rKjGn1f7G+56/kRltzaDDPhLGXKprm+QF/mSn2HZm99Fu3wmzHnH554Mc83GB+v26byuuiUiIiL6lUT4py/J3xpik64fvZ2GhPB/ss9b/xRy+Y0EDPqrDr8cY2p35IEG/bxHKS3wT3KOC/1PW0YfaNCnhXvNIBhD5p+9fSWdYdbt03lVdUtERET0C4ror1FQsFPkCmlcHYh/DUDfsO9xHeMC3h+voOvYmLOF8uz4dwSi5fUXI8b5vE9jX557ktksj/qLJc+tsv08m4BGhHX7dF5V3RIRERH9gl7xMgoiIiIiIiIiGkdcRkFEREREREREkWKwgYiIiIiIiIgixWADEREREREREUWKwQYiIiIiIiIiihSDDUREREREREQUKQYbiIiIiIiIiChSDDYQERERERERUaQYbCAiIiIiIiKiSDHYQERERERERESRYrCBiIiIiIiIiCLFYEOE5FIdXVV56Wz8wtZQumyje1mEPOyhiopup42zV3F5HlHOEQS220wRVx0V+SdKO6+20R3l/JkirjptXJXWniJb4+NXKOdQbUjBWaeOUiaitEe+75/3HnxJY3MPPvGzBnhEWZnmyzDuX/3fM5XnJdJ8FSJ+Nr9SL/KeL7bJkdI2vs+Mc7zq9wl6laINNhg3xGtuyPqXdP+/19FJjY67HtzX1PF5yIdfXnW/vCs4c597xDbkzG/4F4SgcuZV8f+Nh7WqGHl0p6F/bv++XjbPtmO8pA//4B/0Ze/8QumKv+t4gYq2E+Wuw0juFVd+Q58zoJxyqd53X5t13/8CoddlmHS9nhmO46w8OduMmR/7d8OnGXw9Xe3gOV6MXG06kpd0RfVop2soXdrtetT7ftR7MKgNDSyLeD86Our2s8L/nOY1Ha5eB7bNyLmfQWIb9HveP74D8/zlNK6Z2D4922v0afZ9J0WRpuN+EK/H6Gnq94rQXvsCf3Zb8b6HFJxtSajuzWFmdg4zszL2jU9Gvu8dz02vdueX5qDvXq/ve/c7QX+99D9PwpWlr27F95NHe4qgQtB3ksczw9W+vN8x+p+b9rl9nkOu8zrq38yT+7t1pLrweD4E/ro7TVdbKsiYmZ3Dzrnmfbz7+7evnL8jfX9itOk5LOdOhy2QB2cdu5+3XnXrfKcW8v7oZ5hHW7Da2ID25a579z3k8/7Wf2zY55DHd7kYaHcH3a3vyMHPk3EWabAhvyKhelwDFtOvdjRoXza+ZPZq0NBC2bg53xdeOmfPy6oHjwecXKojC/vBVcZmqBfufXkXVSTxyfjdvLqJROPE8eALbkOnyL2bw8y7baju/EzWsGPlV0LW/fAyHtbu6xhUTmeZjYe1XAAKF2gijlXxmZRJY0lq4Uvu1HhYrKO3d4Jm35kUnB0k8XBstzOkDl0Pau9yBlNw1jl0fKHMzK4iV3GW327bUdAffmJbGPZe0evffokEoNef+MK3V8PElusLv7KNZa8vzYByqrlV+zo3TiL70jXbULkBaOe7jjqQS3V0M7fYOW55H6xpmMgEfNGOUM686mwHYe/PRzHyqafp1e6j577vy414yPvedQ/OnuAh5D34mDakNTTEkkZwKzmNh4Z41TShg6Pnx3HNMmks3Z+g3HA9dwYIapvO33Hdg2F4tk2j3hxtoYWyXABQwPu9GpD63biXFZxtxdE8Fp5TIwpTTvv3RiirJw0aksgOuB6Rpqm18DBlfDdm0ojdtzyf5cOluYaSsoDrPfN7EEgrwn0UMk0vzQas9ppf0f9fp39fxSq7qPqdLBPDBDT0XG0j1H3veT7398oNlg5cL+k+aQ48r+f3/SlyBbG9A4CCbAqo7gnXpiE8qxtxbIR4Vqu5Vb3cRsdILv2ONGrYkcfzRTXMd1LzWHhuWM/doHeMAt7Pzjl+Xm4A2l0T/c8h45l937Oe53m1jaPFG6sdzYh1p9nta+ZYQ/pgmIDDGkqXm0DD5zvfi/h9bj03NfS+hzhWUdE9sO9fZ/3pElOSUS9R0e/fpW+7nu99gXX7ZMTv0P40vdsXXHV/gub8unWtg9/fFJxtweojivdjqNxqUoh73Qx+riJXCfk8GVMRBhsUrE7eoFqo4hoLSLtvzKCRyqBRJtdnQccFR0sjivyEHREzf893ZNUV1bosoqT6lBMYeTqwX5p51V1femRw8PmNxv1Xwfr/1XlAEoIDvuW0vnwPcaaqyM6bL6H2uX3bkO80MiM/Bfvhoea+oimZx4vtYMRovaLqD04rrwXUG0Bixc6HnFyA1LjQb/jKNpZnvV+g5dI6EloNZfNUlW38ca7Z5xp1upyygoT2mJeNmFBPrntFuwWEa2q1eeUj0pL7Grrz5XPfi/eRexTjQxI4/9Ouv8o2vjQkLCXNINVzjV6avEZJwj1P1NxqcNDo/iu+3Hs8LzFqOdcQm9SE+xPYv2hBmkqEPN45QmBd60wRV677Ry7VhxpVjQltyFkeMc1NWDn9fuvTqdHQqyjIpiQ0K3bd7ssnoe57ubSORONEeDkqoBzBPag/9/pnL5wpgPxGAu4u0JtKQ8Ya0lO3qN/5namA98ct5zM1uYCHiwL2L1qO507/94LH7AE/vvegc/aIIy1hhCpM28yrm8Cx8CJU2cYf50D6QMWZEWx2BwW82kle9ZkhFqb9DZrV5feMClG315UaJlY8KmDINM17rf+eEkazMjFM4Bb1u2mkM3rAqndxGz5N93PM+vwUuXf295Vau4EmTev34bBpCvWTmJKAiwtgRZ/VsooL1K0D9Y6iZ2DabJcHSUiII+s476D7PsDbaUiNr8L3ShXXmoRYZlCaAwR831vt3Qje6M+er4HBtYcfwuBLwKzBffkEzflNXKkqPjnegYznqfDsEmeVyqU6rkqK5/NRT28TCUhIH3h912novfV/Pjrya7WvR3wnhXnHMGWK2Jg3Bnz6T+Tx3tpCOcyATkFGWXj/cKfZ/56vD0y9vxicZT9h2oluDaVMHJr4viQwr0d2HpBSh579gDNF/P51fVby+Y5QVvoGCm3+ddu884ksCkEgbwrOOipK1mxQM88Rj+i7go3B728FvBcCuvsXLWAy5j/D1JXXh8pXPAQOzBtBKzEYP8LzZFxEF2xQVjDxrQoVp6h+g/PGVFR0HVPThC+ZTBFXjlEmcaREwdnBNL4IUSdsCTfDB+dxjkiW8tE1yhtB5CdTxJUjgug1Iub6PbOhKiqOpr7a+TmGMwomJZE2o7fHLSSCRjvDCkhz/68atPkVYarOirMT7FsHws1oRvSPa/bLyaBymp3r+Tiax65rEtSG/KaReY5ENNHTJMTeAnaEe9TR1rQevXQ9cPYvWoBVf2tIL0poXgz+QkxMSX0PVvWHZj+kBk2X8yG/6T/vUOaTiFV8RlekJLLmNd2rAamP+hTQNxJgBliEl047GBFw35sj4X0R4zXEJp0vXID+JWW+nOijdgEjYpFzjpKUG1qkkeT9Cw3pD/0dltHKeYrevfhipL+MOL8E/ayhdLmOnnW9dnG9aETRXQEfq81Xws6+iSNttiHH803BWWcTEGYZOO5T47liT79MICbBvu8dIz/h7nuvUZ4o7kE1tyqMCq+hpOjfT3aHqonq3TTSShqxuyr2f2j+L9zfb+1nKtaQXtRQL0CfVSU+twuyXp/G92Je3cTE+W642Ra+96DehmJv4ejQy2/segvVNhUVWfQHE9Tcn6hqcST6gs2AXztp3mmYeGMuOTHeAd5OQwrzzAua1aWo6AqjU45ZVGHq9nsV15Pr/YGZoDRdI+zmLJnl3KkrUA7njDlDs3aLWFJBeuoW1UIPD2Y7CZy9tobSpWvmm89LtCNwPmyafR2QAupYQV5ZAS4KwnUMYLZL1+zS5dxpiPs+wPdb1zvPR6Ql47igNB9Jzf2JKpLIlor4lNL62/z8pvXd6b5fxJmXM3s11yw4Iyg5H3cG51HA+1k9EHGmQL8PJ2vYEa63lNq0vu93zmF9/+jp6aPqXstXgDiymVtjxLp/FHjjzh7p3vm2YMxiDfedlNjqD1QMfMcQ6IMUnz2/l/s6ZcoKEtotYkJwJCiwJL5/WLze8zM+13go7sBIkARikobr2imcnVv9meU148vdF0psraDuM7MmkTL7O/qsZHMWV34lDu0uJgQpxCW7wXWr16OwVOftNKRQ9aJ/N+yca0hsmTOJjGChfmYhQNYfLBfbl7vPZgXJDpJ4cPdLQsqvxKF9q9rP1IF90ALq9/4z42Kl37H0bdf7+zPoeTKmIgo26A8Ps4Og1m4c0+DzK/6RN/2Lrf+FBIDeaIUosxlxNRtX807TG5DX6NP3W2jzmz6RrxFnPbgj48YIt+PLc34T3YNpfHFFuvMrcceXSnfL/bAVXrwcL5pmUt7LAIIEplnZxhdhSm5+JT5ExwHG1C2jnMIX/+ByGh1uuOptQBt6KVIqCc/ugLiUwnghrL/gPW/W6ciEe7D/i1Vom+JokMhon+WG/aOg+/61kkt1rF48ftq3Q+Ezql4dlhHty3oQVL8Hfwe+tcIFojJpLEniF/ah/TIOPUBp3ZOZNJYQIjhp8Xm+BQU5Kz08AADWELtrDRgFGA9qbhXl+ySOjCmm/S8KF4htTaM+TCdG+Yg0bo2gSQF191KKgqwvHTM6K1F0kKxO4Vvg4V4f1U5MSX1BwIBM60FazxchI2AEj+eITztRzcBMJoaeMTVfDH6MSn4jQRM7KObzzey4DqzbU+Qq3sHCoVjfkQWUz+1Au5xc6O9AVbZRn9pE7GKI72vjO2rgi6mi4sjrBXZgmgrOFOAPj/Pv/3WLjcztEM+KJ1LZxh/Gtex22uiu3KKqhZyq/iinyFVaSKR8OsMN5/IC8X3WMUv0IAnJ9V4ov9G/9/uDlvqSpYmtth5McweWhO97tXYDLVQwGgA0YQZFAfWGea/owWd79LyNo5QkDBAM/k7yneZuFan/HcMy1KwGg5RE7EIcOPw9/Hew53u+uRzpcQMRo49WGwH2IZfJis+/fdkZYLPf307Ru3e+s0upaStIMXOsOZde+dSt+sPIWSaGXkPzmC3i2nvBMTtLmB3TVz/OJTU7xuy5vFgvVl5bSLiW5dpBvRNga7QZ5NnJGv5wBKKD+qBGun+5A4imONIpv3f6Ac+TMRVNsCGTxpIkRI4OkpDCTGsLo+FcqyWuQzfXz85crPQ3TGsN8QVW+yJd7vVcEa53aZx47xkA18M0YGQhSkFp7l+YI0f6tKdQneVKDw9WdNuot7fTkLRbawQxsJyKsXziuAVJfLiP2oYqPTz0vbTq0d4oXiK0812f62lPvfYaCfLTvNP6gi+PnpXgc96n5hgNjkz/lxrwFGsOw3C1IWPWTvT7t+gdlqVk2KUOg4hfvKuoYoi6E9eq9s1GqeLaGN2QkwuAGMV/Spk0YviMurncRLtF07zvHaOZ4e57r1GqKO5BkaY507A76s6pl76EZ2p+JQ5ISRyZo5/zziVcYppR3Y/mS2F+ZRr1v/RR7dhk+GeqXFp3Lp8QmHv1lBuS8wU1iLGkRk5OA3/pU/OHC348TmDdFj6jOrkSfjqvEdAwg3pHKc3RGVRrN8bssTWkF2GMWsIxk2NffoJ9pKxZHsJ1C5WmMSOqIL7PrNntpbKN5ajedR5x3wPCO+PsHGbknn7ccwTDCxdoQrOvpQ/HVOxMUV8eIexd5J4h8ykFVI9r0MxZDG6aBs0zqPcUXGvmHbONR/tOCveOoc8i8+t46c8bj867I8gdPDum7/3D6z3fmCljBeu37Od26M6reU1DzWoYnO+n5AjSugdIB9St+Rw3BxDsunXtwzHic0Ot3fgHXAoXAbOc9ff6gbOvBHKpri+zduc1sA9q/86X+wWk+65fC2W/mfNWGQY/T8ZJJMEGc3aCczMWOzq/f9GCZEy9dlNrN9DmfUb1jMjQwBu1IOtTutyzAfQP8X52DuVGBDfk91tnXjNFbMz3X3BrdEuIUOuzMB6xvmiEPRsGpln4jCoWkFXXMeF4UK+hVLJ3ck0vii91+mwOe7qQsWbM+P/gNM0NwWTsG+vgrLVHA9qQPz26Lo4s+X659Akqp83regJ22/0UcgmFdYwkTJ0a+svF57y5r2hK9uabbnKpaF0TObkQbvqxF+Uj0rhBtQL9gReQZtB9H6TvOCNA5T1q4TRqOdUfmrAsBsaLg/giquAsc/t0G3AVLvCQWsdSyF8PXU5jpNJdd/1/CQP6i3zA9bQi6isqsu5zKsW+aZShwhvfb6E59lkQ9mwwXlJWP0yjVzvF/oWGpQ8rmABg7ZsijAqEve/7vnMiugcBe/Pc5Xd/ojoZ4rvLS6aIqy1zppmC1Xn3S/yJcymFsafMH+/055T/9RvC91tg6iNWcYH9Sg9YXEEs7MZ5mSI+Ld54j2Qr9l49+lr7kPmt9PAwuYLs1C2qlSZ6kytYDbuBWgD1h+Z61uhrxK3Ae6i6PUX1m4SNTMjZZYOm15qzDtWPSN9HtB63UsW15r/5oFyq9wcaQpJLvyNWiXi2l69w973n881Bf9ZMjNnIYH4lbgc9305DEu65/IekMN3c7GD/iVzBWJrqeO9ScHawgOvCKpbdo87uND8kXYHjkB1YYzaBfq/oSyVCBQ99vpM8DXjH0M+n37Oe5zPe0fue7YULz+VKXgNucqnu+f7R917o3uTxuGUF78MGBvMfkq7Z04OcovrtkX2LEexf9O8pZA24BdXt91to1nO8gPr9ArIrj5yV60GvR+8BQH3fNOMdto++J0zYILa1EWZgUCS4D7p/oSGdWfA+zmtz9Nfqt5l//Xzcv//9+X8PP3/+99+un/+7+fPnz+bPY+P//6f68FPk+P1/Nx2fPVT/1/eznw/nP/9HSNfvnO70fv7n83Dl2j3/+SDk3y8/fWla6Zj5s89x/B9XUcxyutPySttIt6+eB/zzTdNRTw8//283oJx9deese/c5vdM0jnGc6/PP//78+fPnf/7fwDbUdz0d+XK1BauNCGk4c2SXN6Ccx/8Ry2ak4Th3/zUeOs2fA9qtI18e5w0sq3hdxc+c+XW2W9f/757/dOZocFmDymN95r6vXWVxHieWo/++d6Y5oJzuJIW2O1ya9ufu9h62nJ71bh07ejkdaTraR39d9N1zYa934DPB9TwZ8HwT6/2///7fn//3YB7vvufcaUd03/8Mfw8GtSH9M3c59c+P/+PzfHs4//k/Qfet9Tv9df1Q/V+jHB73uZHfUdummHfrPAHfvfZ5vT/7+XD+83+Mc3p99//334PaibNc7roOLKe7fbvq0/e+D6zbzz//6/WZ1/3Wl6ZXHYX4vv930+O+c+fDv5x994T7vnJfMrN9BaXp1Yb+89koY3++7GfeoOebR3vwqz+POvd+vjmP820fnmkGffcOeNYEXKfg91T3e9b5z/8aeXPej+5npZ4f8btNvz983qW83o0d19V1D/qWMeCdPPA7yaMtDHiW29dOeBb2XTOj3H7v/o4y+n83uPM76D2///nukbbXv93znw9e97LXNXNdt77PXek632UH/9zrM6//972mfnXr+l4J36+x7x+7/sV7ytVGAu4jr7rxzKtXWxCP73tX+ukoi/995u4zu9qQ+xnkWUc+z/0x/veP32b+9fOlAx70cnynANETU3DWWUdv77lGhIiiYG/oOC5/Dlgu1fVNaV/JRkn0ghRV/1Nmz/l9506zLw/65o1L34TNJ72WNDwmzV8Q7/vRsN6I6LlF+Kcv6fXp/zNS9FwKeH+s+fx5KaLx1PenW8eAmtOXLITZVZz+3hzT1F8oTXNTP5u+YaY9ddf8c3ajT/F/iXI+N973RESvA2c2/C0ZfwZL0jdAjGL3ciL6hSmqvuEVWqOPthK9gLyqb6oJQF9D/Qyj/cFp2t+/JvN72DqucTL0yPNLlJNeH85seAGZIq4Okj5/4pHfqfTrY7CBiIiIiIiIiCLFZRREREREREREFCkGG4iIiIiIiIgoUgw2EBEREREREVGkGGwgIiIiIiIiokgx2EBEREREREREkWKwgYiIiIiIiIgixWADEREREREREUWKwQYiIiIiIiIiihSDDUREREREREQUKQYbiIiIiIiIiChSDDb4UVR0O22cKS+dkTWULschHyFlirjqtNHttNG9LEL2+p2xqVsiIiIiIiJ6CpEGG/Kq0ck0/o11Z1JR/TvDNLrKNpZn5zBz3HrpnBAREREREdEL+Wc0p1lD6fIQadSwM7sNNZqTvqyCjJnCS2fiF8W6JSIiIiIi+qVFM7Mhk8aS1EL5nV+gQV8K0PWYXi+X6rgqFXFmzYhQkbfOW8TVZREl1W+2hCIc18ZVac2ZrDFd33msccxWHJCSODI/V80Ti3mto5Rxl1VYJuBKM6+2cVYKWkZgnPsRMyrkUt0zXa+6FX/fr27zwud99efHVQfhy+Nft3Kp3neevBq+nERERERERDQ+ogk2vJ2GpN2i6fmhPuth6dsuZmbnMDM7h/J9EkeqHTWQUkng2PisEceG2OmVkkjjRD/2uIVExuxkrqF0uY7e3pxx3l1cL/5ud2AVFd0tCVXr8zm8LwBAAe/Naf5aDTvGZzOyOdR+ity7OczMnvSXJ1PE1cECrq1znuAhdegIgCRS5ue7qCKJbIRLSeRSHUeLN9iZncNy7tT62cadXbc73xbwyaw/RcXR1Ffrs5ljICvUO6QksubnezUg9dEORgQxl0oI1zNcOf3rVs19RVNaQNoKQChYnddwXQtRTiIiIiIiIhorkQQb5DdSwKcJxKQWvhidYwDYv2gBkzF7ZLpxYgQCgOadBmkqIRzfQtkMBHy/hSZNIwEYsykkpA/M0e5DpCUJsbf6r+ZX4tDO/0SuEkUJDW+nITW+CucsoN4AJt7YnV47zVP07p2fWZ1t3xkg/hJbbT1w4Dh2DelFCVLq0BrxP0pJVv3lV+LA/KY9G2Ar7qx3sW4rVVxrEmJisMZ31ohzRkl23l3OURRQPgeWkmagZAUJq66Dy0lERERERETjJZI9G9QfGo5SehDgWfdr0GrYGaHj/ho1j3fRyxziqtS0ZjXoNFT3Vn2DKs3jOSuQM5SAfRXy6iYSjRNrNkhebWNjhCTc1NoNPilpyDhFYiWO5oW4UCK4nERERERERDQ+ollGUfiMqhZ3TtG3NNHTxKURayhl4tC+VR8XJKj08CAlfafS71+0IAUtCxBnSYT1/Rba/Lq9VCNTxIYw1X+wx+zZcIrcO/eyjVP07iWkFe/zNe80JLbUcEsjlI9I4wbVgZ35NcQmAe3OWAiRKWJjPmQRBqls48v9AtIZBauTNZStzzsQmwAAIABJREFUYEdwOYmIiIiIiGi8RPSnL0+Re7eL6uQm+jdktDvJ1nKH+xPX6PwoCni/VwOEqfWODRALMnbOJWT9/hRnZRtfGnH7cytQYi4R2EQC5jINYzPDyjaWjzV76cZBEg/Hzznarpd5YsvO776s7w1x5FFONbeKsljGvuUQwmdbCNjgU3SKXKVlL2k4mMb1uWZ/bC6/EDfgtIIrAXVr2L/QkD7YBCrOvASVk4iIiIiIiMbLP36b+dfPl84EvYBMEVcH0/gyK2P/pfNCREREREREv5SIZjYQEREREREREekYbCAiIiIiIiKiSHEZBRERERERERFFijMbiIiIiIiIiChSDDYQERERERERUaQYbCAiIiIiIiKiSDHYQERERERERESRYrCBiIiIiIiIiCLFYAMRERERERERRYrBBiIiIiIiIiKKFIMNRERERERERBQpBhuIiIiIiIiIKFIMNhARERERERFRpP6ewYZMEVedNrqdNrqXRcgvnWamiKuOivxz5IOIiIiIiIjoiUUTbFDUvg50Xm3jqrQWxclx1qmjlIngVKbKNpZn5zBz3IrwpGOYJuB5bUIfZwZHOm10VcXxcV71+2wNpUvhM/e1E4MuUV9XIiIiIiIiGgt/z5kNNICCsy2gPDuHmdk5zMzuojq5bgUG5FIdWZwYn82hjE0rsCSXfsfSt13rs5ljDekPin3egwVc7xmf7d1g6YAzOoiIiIiIiH41zxRscI12e8yC8BoJ13++iQQkpA/Mz12dU2ME/sw58P44rlF997md+RXy4xi1H36JRqxU907TdV7njBH3TAIzPwrOOm10t+KAlMSRzwwFuVT3mGHQRE+LI2v+rvIRaUlDr6KfN5sCqn8VzMrC6jwgLaYhA1B/aJBSvxvnW0MpE4d21zTSWkei8RW5ipF2cgES4liN8toRERERERHRi4su2CB2aDttZOfND9ZQujx0jHaX75M4MjuymSI2JmvYsUbRV63O6L48h5nZEzShoWqOhs/K2I8s0x4UFV1xVH+vhoktZwAk68ivkB9zqYRQzmzojnQc6amvxmyAFhIZI1CRKeJKnA0we4KH1KEdjFA+In1vzzKw81PAe3PZhibkVy74ZUBwitw7fcZCt9NGN3OLHfO8mRgmYAQeMkVcddbRO65Bk6aRAICCbMxYaKPbOUSsMofl3CkAIDElWYGHvNrG0dRXlBvAxJsoltsQERERERHRuIgu2CB2aGfnUG6YHyQQk1r4YnQ4AWD/ogVMxvTOdKWHBymJo1HX7xdkzMzO4X2YPnQI8hsJ2vlnIYBQxbUmIfYW0EfxNVQL21A9jzZmEwgBl/Ad6RbKZiDg+63deX87DUmYDQAUUBc76N9voc1v9s/4CEnNrToCPDp9toS5VKJ8n8SR14ySg2l8mV1F7rv750ZwZK+GiS33TIwESpdtbNzthgx8EBERERER0WszBns2GCPws38Civeyhdcir24i0TjxCLg8IWs2xQVWo9p0MZPGkmQHP/blXVQ1Y7lDpYcHxJEVZzu8nYak3aIJIL8Sh3b+px68qGxj+bhlLbFo3mmQUpvCbIc1xCaBhx+nfjkhIiIiIiKiV+gZgg36+v8Na3TbWMf/reqaHaBP3d8511yzAZroWTMLPES8Z4O+58BHexRf+Yi01EK9AOizCiRhw0OR3nE2lwkgU8TGvMevDev7LbR5e3NG/bwarmvuDroetCk3XHUlzpLw4L1nAwBIiFk/SyAm2enUGxCuX//1lKbs1OQ31oFQazfQYNYlXHVLREREREREv4p/Pn0Sp8i9S+Csc4hu51D/UeMEM+ayCkXVNzE0aTXsvDt1Hl/5iO5WG90tAGih/Nh9GxxpxnHUaeNIq2Hn3TbUgoydN3UcddrI6hlCdW/VSm9f3kXs8hDdzqbxEzM/Zj7NcrZQPdewFCbNoLxWtrH8VkX3oI3ugf6j5vGcvcliqY6jlN2hR+MEMwXn8V8+tJE1y9M4Gbx8wSNN7XwXywV3HRzanxnX07t+jDKa57XqNoJrSURERERERGPnH7/N/OvnS2eCiIiIiIiIiH4dY7BnAxERERERERH9ShhsICIiIiIiIqJIMdhARERERERERJFisIGIiIiIiIiIIsVgAxERERERERFFisEGIiIiIiIiIooUgw1EREREREREFCkGG4iIiIiIiIgoUgw2EBEREREREVGkGGwgIiIiIiIiokgx2EBEREREREREkWKwgYiIiIiIiIgixWADEREREREREUVqfIINmSKuOm10O210O3WUMi+doeHl1TauSmsvnQ1fgflTVHQvi5CF3+0a1+NMeb78+aU57nX7EkarkzWULtuOa/2qZYq46qjIv3Q+nrlen+p+eIn7noiIiIh+TREFGxScdeyX1OFfVNdQUpJ4OJ7DzOwcZmZXkatEk7Ox4urQuz7E2ZMGWRSszrfwJXfq+Wl+JY5mZRuq8f/78hxmZndR1Z4qP/1eIk2zkzh8x8roXPoFyIKCZ4rquFe6qjNxscPn/kw4SeD1fD6j1t8g4e4HObkAnH/GftTJu9Mp1QOuxWM80X0f+Kzx9zL3IBERERH9iiKc2aChumcEC45bSGwNM9qYQEzS0PseXW7ISS6tI9G48O6UZYrYmG+hXnjuXL1ecul3LH3bNYJjc5g51pD+YHZGFZwdLODavB/2brB0YN4PCs62gLJ53OwuqpPrVmdTLtWRxYl13jI2PUewA69noFPk3s1h5p0dWHq9FGRTwHXtpQMuwK9Vr0REREREj/c0yyi+30KDhJgwWucYrbVG3MwZEZtIQEL6wGM01zFC7BxBzattnCnirApngMM7TeOcl0XkS3Xrc3eHTi7VR1zOkbbz4y7nVhyQkjhyjVrr+XTVQUfonHZU5MXR8L4RVuP8viOva0gvAtW/vKMJw48Ou0b13SOormsm1q3jmgw9A8arbr3O6wp0uWYSmPnRr/Eh0hKQ2PJbwuNdt+oPDVLqd+N311DKxKHdNY3zriPR+GrNzpGTC5AQx6oCAE30tDiy5vmUj0hLGnoVPa1sSrxOClbnAWkx7Rqh9r6eQXUrC229vw25ZybZ9dd3HxjX9kwJV3++92Bffu3jgu8HMdsrjnoOTlO/j0pGPdjPDeO8IZ4JvgLvzQjK6Wu0Z81Zybg/VcXKG5dMEBEREVHUniTYICcXIGk3qJqdrVIdG3f2KPDOtwV8Kq0BKOD97BxmZk/QFGdGyHZn6+xgGl+sUeATwDVjIrG1gro5CtyIY0PoSHqnaZCS2MCfxshzDUh9jGTdt5RaQG/PGLFGElkFdjmPW4BWw86ss5z61GVXHczKQuc/jmzm1jjuBM359eGCIMpHpO/7O2XGh8imtCGm46+hdHnoGNUv3ydxZHayMkVcHYhLYuawLJxbL+ucVe8TmfBTvb3rVu9AibMBds4lZK3O1xpKGUmoVzs/am7VmjLeHHYJT0E2Ziy00e0cIlaxz5uYkqzAQ15t42jqK8oNYOLNGswR8DI29U5g5hY75rXOxDABI/CQKeKqs47ecQ2aNI2EmLbP9QyqW72s9swjV2GM+9CuP/M+UnOr2DkH0koRsrDc6X1hcP0F3oOZIjYmhXtBOG7w/SBcV1fAJfi+jyM99RU75xoSW+vo7Z2gKQZFpSSyU1+HfyYUZKPePNYePLqc/kZ51gBAIjWNL3s1aPOb2LjbFdomEREREVF0Igw22KNzR4s32LGmE68hvShBSh1ao3tHKQnSVGLA+aCPXCKOrDUqqI8CijMmNGFEfl82O3xh0hTWu1e2sex6ydc7UsPvHaGd/2kcc4refVQv8RqqBbM+C6g3JMTeip8bHQzZa+aCPurevPCZ1TD0dPwEYpJzr4D9ixYwGYMMI9DUOMF7nyUZjhH2gyQkd0c6gHfdriE2qTk6nWrtRuign6J3r7fN0TbU86lbRUXXXCqxV8PElvv8CZQu23rH13GsPivEDI6U75M48pqJcTCNL7OryPUtLfK/nqPXrXOmivteUXOrRj71IJPftXWfM/AerPTwICVxNOp+BcpHpGEHNEOlCaGdeMyIAFoom9eqUsW15nzWjOSx5Qww6rPGfmaOw54fRERERPSreoI9G07QlISRbsdnwj/PjrGHxonzuNABgEek+SvJpLGEGsqeRQ9eXhF9Xor4lIJ9XfZqeI596MwR/z/w+4BNF8PLr8Ttzl5lG8vHLWu5Q/NOg5TaFGY7rCE2CTz8ONWvh2R3avflXVQ1Y4lFpYcHaxaLEfx6Ow1Ju0XTTNjvej6ibuXS70jDHgX3HKEHoGlauCChfUTAPWjOpvgTUIafyu/e0DRcmi/hceUkIiIiInqtnmAZRQHlcw2YXzFGa42RZWWEPwn3/Rba/OYIL+ePSNMw+p4NAb7f9k+JtzTR09wzFjx4bubov2dD/kMSD56dMgxYXuFH33NgwxrFN/Yr+FaFCmNWgd8yj7fTkMxlAkbepGGS9mRc6w922fMfkpA8ZmuouVW9E27MwrCPDxoV9q9bseMtv7FLotZuoEG4RspHpCXxmokj5gnErEMLqDdg1aW7bs2yeV7PR9RtYkoC7nvGORVkU84jzU0rl9/9ieqk+370q7+w96C+rGTnXHOdI+B+MJYm9AfQHn/fWzxnTjzGCOUErP0ghp6VE/isISIiIiJ6ek+yZ4Oa+xNVoUO6L+triq3NysKO7hkjxvbmc+H/jv3IaT6lyja+NIRlIY4O7ClyFbGs4tR6YQO5gwVc74Vc1x34VyaClleY0+qdm//p9XeK3LsTPFhT1Q+Rvj+x92WobGP5WBM2vBM6SoXPqGp2+TfuavaIfWCawfblXVQnN630spM17Ij7foibHx4s4Lrg7Kzv/1UDrPKECzC50zxKaSibS4cq21g+hn2dt4CyOVOhr342MXFuL03Yl3dxvWjX7dK3Xbtug65nYN0OKMtf+vp9Pc119M7tPR3kUl0vm1wAcIpcoX/JiF/9Bd6Drk07jxZv8IdjSr///ZD/kASEAEzfdRn5vo87r5n7L0vMbzrybJ7XXL5ylJLs37E2AB29nI8S+KzxM/o9SERERETk9v+3dzcrjSxtHMD/B95baBExzBs5MmBwoYKDXkDMQqfNHQw4CsGN6KZPznpyeqO4kYAeYe4g06OLmAtIGMGZhUQYhMgQEbEv4n0X1R/Vne5OJ+n4Mf5/cODMZNKf1dVVTz1V+eO/6T//99QHQVE0nLbeo73T+/oRRUOsGTAfNC9bM8TihPypvhcj8n72QC3XsT/29WVOK8of4Hx3HF96WEjxSbdLRERERPRK/eepD4CGp6ROhnecdBXpF9jXfM0i72dsYhFF83vcvIdnprKJ+cSmNhARERER0bAw2ED02xM/V5qzl2K4PEaav0JARERERERDxGkURERERERERJSooSwQSURERERERESvF4MNRERERERERJQoBhuIiIiIiIiIKFEMNhARERERERFRohhsICIiIiIiIqJEMdhARERERERERIlisIGIiIiIiIiIEsVgAxERERERERElisEGIiIiIiIiIkoUgw1ERERERERElCgGG3qi4bRVRzn/1MdBRERERERE9HwlF2zIH+C8dY0b+79vB1AT23iwoiHtr3WNm5aBYtwva8ajHKOwgvI337EaWmJbV8v1RLc3XAzYEBERERER/e7+k8xmNJzuzuBiZxKFSjJbjMs828Z84eRxd9qn5uEklnVABB/2cGMAaVV/6sMiIiIiIiIiSlQymQ35FEa6/BNPFoI/o8CXFXFeXknksIL3qeG0dY2bjSlAyWI/MNPAl4ngP96sMeCxnqCg12BOL7iZGL5rcCofjj9rxD5W6+/3lxRgei3kmKxz6TmLw7pO/m3mD3D+7QBl4xo3rTrKmnVs1vbVch3nZU26fm4Wg7gfa8hAQW7Xm42iluu+YxTHnVRZICIiIiIioseTTLChsolPZ7A6kJ1TGdRyHat320hPTCI9MYmt7zP4W+687mbxcDjpfN5LpoKytBcYFAjfp47liUmkD68As4Yt63M3w0BkHeTuj53vpt9twnD3iNzsrfjeTg1Y+hh/6obnmrXxAAWpPCAyQ8bxxd7fxDGw4V7H4gfv9XGOtbKJ+YlJbJ2ZwOVxX9cv2ArK396jvWPvcxsXs3+5Ux+ULObutnF0qSC3MY4vOzWYyjgy9sdLa0hVrOt+BuQ+iOBISRXn1oSJqrNtFSUARuErmsoMcvY+8jnMKVf48kKyVoiIiIiIiMiV2JoNRmFRdB4PgXVPx38FuVnFExTYX1KgjImuqZqdgXJ5bE0v6KSW6561Dk59SxOYZ9sBQYHofUayOrlHodMbTFR1az+egAHgzwaInU2gLSCDKXHdWu7ov73d5p2JzEa/6zycoPDOHzDpIp/DnCJnH+whpyhIvbX/gRsEMM/+Rcn/fel+GrUfMEdTMa6DjqMzYC4rglBqdgYI2jYRERERERE9ewmt2SDRVaR1kR2wrgGGDgAmqjuLfa3nYBQW43eSPfrfZ/90LE/EXIMhn8IITNQrADSIzISQAIdzDTQxfQNmDVu9BA/6EbaPIS7saNR+4O9dkSmSmgUudGY1EBERERERvURD+unLDFKK/f8naN8ryGnBo/xG7QfM6fcJ/zpB9D4BAD9vPan/jkoVF+YUVoe6VoCG092sO3L/8xbm9FpH1kYHXRXTEHzHbfwygdDsgT7WbKi08aBk3akuAyh+yALfq1LQoom2KWdJyPvdxJfLKSwaH5G7//roi40SERERERFRMpIJNmiGZ6rDTWsNcH55ASip26hCWoxRng5R2cT8oSml7CezKGDkPq39frmUpi44UxROUHh3jIeQtSAGkdnwXh9nbYXKJuYPr6TPvdNQvD+buQYcqt7pBfq/nnMd/PrpWN6pAfI16OVnRaXFKtdx7FtD4gSFinyu3u2WGlfITE+h2eCvdBAREREREb1Uf/w3/ef/nvog6PehluvYH/va/096agZuNoCjCZXrNRAREREREb1QQ5pGQdSPFZTzU8GLThIREREREdGLkfwCkUR9KBrXWJ+GWCiTP3dJRERERET0onEaBRERERERERElitMoiIiIiIiIiChRDDYQERERERERUaIYbCAiIiIiIiKiRDHYQERERERERESJYrCBiIiIiIiIiBLFYAMRERERERERJYrBBiIiIiIiIiJKFIMNRERERERERJQoBhuIiIiIiIiIKFEMNhARERERERFRohhs6ImG01Yd5fxrPwYiIiIiIiKicMkFG/IHOG9d48b+79sB1MQ2HqxoSPtrXeOmZaAY98ua8SjHKKyg/O0aN4bm/I049h6Ol4iIiIiIiOiF+E8ym9FwujuDi51JFCrJbDEu82wb84WTx91pX67QxAKKAErQsIgrNJ/6kIiIiIiIiIiGIJnMhnwKI13+iScLwZ9R4MuKOC+vJHJYwfvUcNq6xs3GFKBksW9/LmUdOJkIYcebNXo81gxSClBvAIsaAG0BaDS8/0QzPFkap5rnQ3HMrWvctNaQiXWevnPpI4vDmzkiZ2FEXJ/8Ac6/HaBYrgdfI995JnWviYiIiIiI6PlIJthQ2cSnMyC3Gzw1QC3XsXq3jfTEJNITk9j6PoO/7U5m/gDnu1k8HE46n/eSqaAs7QV2esP3qWN5YhLpwyvArGHL+jyt6tY3V1D+tofc/bHz3fS7TRjuHpGbvRXf26kBSx/jT4XQG8CChuICUNebaJsKUnmIDvgGcGTvb6eGkQ17XQYNp601wLk+x56MiMhrO4CicY31Uen6TKgoSddn7ru7z6P7LPblYI2SxSr+cc7FvUYrKOcVVHf6u9dERERERET0MiS2ZoNRWBQdyENg3dPxX0FuVvEEBfaXFChjYnxezc5AuTzGsh68XVUaIe8c8RfTKDqDAtH7jJTPYU65wpEackAwUdWt/VTaeIAVMADgzUAIyibQcXT3Hqt3/1odd+sc3ygwz6S/q1RxYSpIvQWgLSBj1nAUeDhxzvMEhXf+gEk3GhanpfP0yCClXOGLFCQoNa6A0ZR0rtLnlU3MO4GKE7TvFeR2mdFARERERET0O0tozQaJriKti9HvdQ0wdAAwUd1Z7Gs9B6Ow2EMnWdb/PvunY3kiICqQT2HEvEUT8vkk1dl+ivPsX0mdRAl2EGkPuDyWskqIiIiIiIjodzCkn74UaxQI1mi2FrxmgFH7AXP6fcI/5Ri9TwDAz1uYynjH+gciq2AKq4848m78MqHI0zG0j8gpV6jr9nHOIJcHxBQGec2GGOfZ15oNOuqXCnIftIDPmmh7rs8KyvkpmN+rPQWFjMIi0js1mJ6MCCIiIiIiIvodJBNs8C36d2OtMWBPjSip26hCWoxRng5R2cT8oWmt95DcooGR+7T2++VySkz58CwQeYLCu2M8hKwFkSxrqoSuYutMcY9lQ0F1x5p64FkPYw+pyjaqZg/n2aeSuo3q6FrAApH+6yPWt4i39oJvmsnuDC4Cp2oQERERERHRS/bHf9N//u+pD4KIiIiIiIiIfh9DmkZBRERERERERK8Vgw1ERERERERElCgGG4iIiIiIiIgoUQw2EBEREREREVGiGGwgIiIiIiIiokQx2EBEREREREREiWKwgYiIiIiIiIgSxWADERERERERESWKwQYiIiIiIiIiShSDDURERERERESUKAYbiIiIiIiIiChRDDYQERERERERUaIYbCAiIiIiIiKiRDHY0BMNp606yvlhbd7ATesap9qQtv+a9X1tV1D+do2bbwdQh3FcREREREREv6Hkgg35A5y3rnFj//cInbOiIe2vdY2bloFi3C9rxqN3IP3HG7/jKzq8DEIQERERERHRS/CfZDaj4XR3Bhc7kyhUktliXObZNuYLJ4+70z6o5TrWcYz0hB7+j3QV6YiPaQB9X9sTFN49//JFRERERET0nCST2ZBPYaTLP/GM6vszCnxZEefllUQOK3ifGk5b17jZmAKULPbtzw05bcBKnQ873qzR87FmxpSIT+X9eadpqOU6blp7yClAZiP430Re236nAfgzVeTrE5rFouG0ZaBcrluZG9a1ljNOfN/tNbsj8DzzBzj/doCitV/vfQm/toHnIp+rZgSfP8R9OS8fWOfXY1YNERERERHRby6ZYENlE5/OgNxucKdLLdexereN9MQk0hOT2Po+g7/tzmD+AOe7WTwcTjqf95KpoCztBXZAw/epY3liEunDK8CsYcv6PK3aw94rKH/bQ+7+2Plu+t0mDHePyM3eiu/t1IClj7E6mSX1GM3ptZAAxQkK7yaRnjhG0/eJUVhEemIbVRNoOtdo0ckgiby2Ayh+8N4T9/oAqGxifsL97Og+i3WnLz6F3NhXbJ2ZyGy8R3vnGE0oSOUBkQEzji/Od4+BjTiddHFP5r5ve/a5LwcAlCxW8Y/43HNfwq+tOB7pPO0yYZ+rropremYGHpWylAWs7x5dTmE1oSAZERERERHRS5fYmg2iUzyJ9CGw7un4ryA3q3iCAvtLCpSxDABAzc5AuTzGckiKuyqNVgeNhJtn2wFBgeh9RsrnMKdc4UgNy7k3UdWt/VTaeHA60oCTNRGYZWAFOSa2cTG7l9BCkHHO0+psewIm3TXvTJFJYQQdpPc816eBkTd2R9tE9bN17S6/eqfVaAvIYEqUj9Y1blpryMjXT84k8ARlMkgpV/giBaFKjStgNCVdX+nzyibmJ1SUejhfhzKOGKXEOj+33DbvzHjli4iIiIiI6BVIaM0Gia4irYuR6HUNMHQAMFHdWexrPQejsNhTJ9nV/z77p2M5ak0GAM4aAJqBm/wBVL23IECn4Zync92tAADMGrasgEXRWEPm8tjJdiga11iNu2Hpex0efc0KHfXLNaxvXONmA7CvZV9BCiIiIiIiInIM6acvM0g5SxScoH2vIKcFrxlg1H7AnH6f8M9JRu8TAPDzFmbQKHaligtz+Cnx6puoNRz8TtC+l7MH5L/vcp6D/nSjroopCM61WkFqFDDvrEkJ+QOsTsfc1s9bmNNrfWR0NNH23JMVlPNTML9XBwvU5A+wOipNpZl47OAUERERERHR7ymZYIMv/f2mtQYcTjop5iV1G1VIizHKUwgqm5g/NK31HpJbIDJyn9Z+v1xKKf3OdIETFN4d4yFkLYj++BY3bF1jf/aHkyngTksQ0wrEtfAuZlj6XAOcY3I/63qeiRzvGnBoT0s4QaFy5U7d2B3HRciaBh0qm5g/vJIWuox7bf33RKypEW9tj4hrW9nEl3vvtZOvrT2FZ39JAaz1NoKnlRAREREREZHsj/+m//zfUx8E0ZPIH+B8dxxfpPUdisa1+InS0DU7iIiIiIiIqJshTaMgegHejsM7mcU3RYSIiIiIiIj6wswGetWKhvg1DUfUApZEREREREQUC4MNRERERERERJQoTqMgIiIiIiIiokQx2EBEREREREREiWKwgYiIiIiIiIgSxWADERERERERESWKwQYiIiIiIiIiShSDDURERERERESUKAYbiIiIiIiIiChRDDYQERERERERUaIYbCAiIiIiIiKiRDHYQERERERERESJYrDhtdMM3LSucap5/7poXOOmdR34mf2dm9Y1bgz/hz3u+9sB1P63kKiicY3z8krP37lpGSj2vVcNp606yvm+N0CPJX+A81bvZeT3sYLyt2dUVq37cdO6frR6RC3XB6vzEihD/dRTL88Kyt8C3j2/BXFu4h0a8jyFlJOBy9+jGuTdNoy65vm/a1/Hs/2cyM9ictc+VrvwmbV/n0b/zySflZclmWBDwEPzPAqChtNHbIgCQ2gMaIa3QfJIHZ6SOon0xDaqZsCHuor0xCS2zoI+jK+4MIVmZRMGAH+l32sHQi3X+/qe/P310Ro+FU7EXwS+CJ5ZZysR9nWXXoz5A5xbf5aDTvJ/cTsBzn0JuCf93zPrue7xWMKFdGw0I6GRQMjFAAAgAElEQVRn2Vu2g45XXOfHK1ueax9wjvbn3mM9QUH/gbnd/oJrwdscQGUT8xOTSB9e9fS1wHdT/gDng74npOcGQGfd3UW8d4eGxekrfLHrqW71phwY9tzrgO/18Bz664XOeyo/o72X66Kxh9z9MZZ1eXud70Gx34AGq1N/e+sK9z9xn0SZ9N8z93yG07k/QeHdJNITx2gmvOVBdL+nj2mQusZftl/KO9v/bIu/Ow29H+55drYHB+hEy0HcHq+dpwz18tz0vc/B7rVa/gu5+2OkJyaRnpjEvOfaD1dP7d8XVY8P1paP5+U/K+499dZxnrZZ0LYj9zl48CywLRpa/uL7vTMbtAWMnB2jihnkXsTLJph5aSKVFYVGzY7j4XKwTr6HFThwG3WPJH+A1ekr1H37bR5OOhV/+p1dEXehGdif/YEt63tb32ew3+OL7u8lE0dx9ycRQRkVpR6/99yYpoLVgIpJnN8k0js1mLjCkXWN45SXonGN/bGvwUGpvu/ZCsrf1gCnnBwDG4/UmLQ6t701SDSctvYw933bKdf+a6eW61jH1aN1PIrGtefap1XfAWkG9mdNNIOqmcomPp0pWO/5ZbOC3KyJo8MrZBZeysjsIDScbiio7iyiUJH+uq8y5FLL75G5bHTUN6H1plW/289Kc/q99azYHV73v60zE7hvx6oDnXrBCvZk8lJjMn+A85b8jPquQTeagfXRGrb85dKxgrKWxcNhnHpIx7J8fpd2x8Kts5uXwKJVJIsL4s9PbsBy0hvRQF3Hsac8PHqbwK+vukbUt3IHsufy90Q6nu38Ac5b79HeCQpKifNMVYIHhNTyX+47Z6cGLP0V8x2p4XR3Bhc79ns/fsBHvMfc636EtZidnf73WTS879Ze73VmTIF5l/ybt2u7sNf27wusx/tqy8f0OzwrN/lbbAUMlBiFRc/9FG1vE+0KIN597j63zoCc5t6z/s/FPa7OtqiG0w04bf/0xDaqo+97bnM/UrDBH+mKiuTIn1kjyVp/6bLFBQUXNR3V78Bc1lvpdY7YhkWO5CiZhtOWgbJ0vE5lan1nf0kBptdCIkvWdehlxP6NAtw10B7LQcUKcmO3qN/J/8J3baOioZ7jiZHK2Rf/SFLww6dmZ4CzfxPopK+gnPdGiHOzCjC9EHtEpPgh23ksP28RHNKxHvqoFG5rlLQcOhVFvkZryPjPJ+h+hoy8Fg1p27773UtU86HyFQ+zuUSjzyU1oCMLYKB7pn1EDjUc2ZvVFpCB4nu+resbu5F6gvZ98Cd2QyRqWlHRuMZpOaQ8aAvIXB6HdxrsQJfaCP48ZJpTuM46xjt6K0YEwgNrVidZ/xftkD0Yha9SYyemfA5z9w2U9Aaanvss6tRiyNQsUb7l56WHkc6Qerx5FxKslRponveD77kz79Cl7rQDYt7GWWgZivXuENvNzQLVz332AvMpjDiNFj8N60v9bVt9o3iunajbt/vsrPrrhk52ByOJznBmTAEaDWBBA6BhEQ3UB9/sQCKnMMrs8t3xrPf4rGgfkVOucBQa3Il+HvzPWdh7x96Gc04xvtdzXaMtIGNGBaoAZI3gfVqZbGHX39tmdK+tp/6Xvu9tN3a7PgHPdmUT86EdPBFEC3sGjMKi+86pVHFhKki9Db8kNtGJ++rsU83OQMGUE4wL568/NCxOA0qMNkX/+1xBajT6mMLaovY9Wp8GlKW9js/9o8uxy0nMqX0DtX9fRD0epYf2b2A99tKfFSugEDMA4+2fnKDwzj1Po/YDpjLuXMN+zwVARFu0ibY55QZ9tY/IKWHlL9zjBBu0j75IsxTx0wzsj32VomvwRbIV5PLAJzuigizWYzW8NSyO/kC1Im4IpErPTpnfsrdpAk2nYajhdHccX6QoIjbkwj6FnD0quFMDlj6Kz6yRCO/oSVIjE01U78aR03JI3VVR+mVCGctAPJjeyO7RfdYdIZajoTs1mJ5Oz7BSOd2RJBF5Cxox17C+ZPpSoITMRsyGlvsNpBQT7Z9iuyKCeYwmFKRipnylRk1c1ALuk/UQu2nXGaQU67NuKdxKFjk7yu+JGGs4bXlH5t3rH3E/K208WMejluvW8YhjF+e+gnJeQXVnss+yp6N+H/fZGlT/90x+IdrR4aMz+3kYzMibFU8qvPpGcT6LnFYEILNkR5u9dVRxYQrmXSokFdEeoU0yM+YEhXfiGP4ur7gvELvO1RaQMW+RMoIbUkVjDSNn/3QZwdBRv/QHeKKp2Rk8NHTru/4X8hTW87dWfXzc0bnIbLxH2yrXR5dTgRk4naLrcVFepPT7t+Ow77ZarmP1zn0Gt77PiGtpf3dpDamKNLLwwfvQpKzRBX/jJrQMxX13aB+Ru/8aeG+i6k2nUbwbXtb8Dafu3Abj/pIpdVRF4PABOakj2UsqfAYppXPEz5E1sI6g4J2C3K7UQN2Yir1HQEcdCyhqC0BDR/POFHXBE+lW1wAQ9ZQ9qmY3Wru2pYKpbxTAHiXUOjvikc9D/gDnuyLLJOq9UzTczIll3Xf81vP5sLQX8M7vra7xd5g6KcjN3na232zTa1hsdI70ysdvt2vWpc5kZmkcX3ZqMKfXsHq3jaNL632CFZS/ufVXemIbF7MBo40Rz/bA8jnMRT1TEnmk385MdM8lah9SB9geZT6seTpCie8TJyjoNcAKFgSVnbC2qD2if3QJmGd22XbrRu/o8jEeYpaTeFP7+mv/vqx63HsubuAlqv3rTp9zPzNR3fGd60t/Vno6HpEBE1RWACvAEZDpKL4b/1yi26Kir3gEayAkf4utPrK5HyfY8PMW5vRaYGEtLkx5RnNuNqaA0ZQnIuiOcoiTdhpxESO5avk9MvZLp1LFRZepFE4B0RaQwRTWPZE3uRNkoqpbx1Np4yF2p9Y9/n5SioxCA6mNcdQ9hU40zOSCWGpcdVw/QMOpBnyKivYnxhuZ3F9SOjqCwanAvnSwwytkekmPf2unUfWa/ml1fP0VV6WNB+t8UndXfYz6SyNFP2/dl6418nIUeIxR97OJtinKWgYmHsZyUD3HfoL2vWhw97ueR+lzDSP5pOfWRej7nrmVe/rdZkCwzGpk9FDendHut8DDpRIrOi0znQ66yJKQXzjK0jjqTrk2nbQ3NaRT6j2VfqY5naDwTjTeb3ZncOF/WStZpBpyQ8pq/GphHblOodkBgcRoiwguiTLtnUoh1alW50KOxptS8KPUuIoXWIqox41f1rHnU2hfmr6OjGhkuaNdAXXYpbuWgFH7AdNT304ht6QgedaIf8NfELrXm26q7DGwETwvt/fRMKkhfwis+97tmVl7gMDqmMXNMsqnMGLehgTAFeSWwoIIpifQ2us6HqXPt1jN34bUy8/M9BpudsfxxTeSF6ct1ZVV3xw5U0minwfR2D2OqJ/EO2n1bttbH78dh+LpFOmohzTUe6lrMmPdnr0u7Tf53ayrVltNBPXl58M/omg6I4++jkE+hzlFDoTtIaf4RxvDnu0kaDiN6JwGy6D8LeCexdqd4ZbNn718sc992p17q27rCOZ3aYtGnkdoHwAh5SSeftu/L6oeR8g0isj2b5Df+FmJITDr2qYZvgCR58OeziW6LeqdZnd0n8V+H4viDzXY8PDLTuewK4QGFgNSTz2Fspf5PZ55THJE3U7LXvNU8HajUrwosti3P7v3NbAvvXMXn3LOX2ZMsa6jjuW+1gawIut6snOmwqjlv5BDzZ2L3zFfP2YqsN6ImXEhOuG5DanxFZlm1qN8Din8i/q9FawKbQgPm53qr2FxrIGju3HkNG/D3H4ZfcJfHenosVQ28eV+Brm4aVd96/+eGb9MwBo9siv3JOddFhfGUf/8AyNWZ9ipwwZgyi8LJ/CkYX1JbsSLBk1ut4/7Fr5nmEFpdJ6XvRXEeite4t460xqdGHRxJ2uqi9Pg3pjqaZpT37rU42p2HPjccAKJbhnydVx7Clxd4Sh0lHYA+RzmEKORFllv6jg66xy1LxprPY6G+Tf7L6qmtzEuT4Mwfpm9d3oDmajubKM6GncueDdSZlhlE/MJzysemsvjjpF1Wz9tqe73Z5DnwUR1ZwjPQ4jmXVJlLUGm2x4KXA8j7rPdM3cUOW6wunlnOplbok0spip0fQ9W2nhwMtSsdurbcSgx2kt979NDdJrlTLPubdEwGk43pqRnKcns3yTavy+9Hg9XalxJbZA1jPincfwOz0rsQzKwHpbVoBm42YCbser9sMdz6dIWtTIk7KBGSd1G1Yw3XUSWTLDh5y1MRcocyB9gddp0RrJcokI4kkaumncmMhv9rW4eyr44cgW/U3OmUhQ/eNP+PC9OKwuj3xdj9APZ+5oN0cRcmlV5HYb8FMzvVXfeVfkvpCqPFyzJjMlpjKIQe8RMgVLL75ExxTQY6csBvy5ygup3000Dhbi/oalFHdyMgaC/X/wwjnbtBKWGibkPCxiJtc0InmdFzO12Y+3R97N5B6Q+iFRf4xcwtzAemDJqFBbFtJk+Xgylholcfqbv04sn3j0L/PUCvYEmpGkvVl3jnQbT+3Nm/DKhjH3EIhooVaq4GF3AetdRsu5KjSvPvFU37c2b4ummDPrqo75+fcZdM2Ber2FErl/1BpqeutpOtfMvNGVPLwvusLhB0O6KC1NSqqo7HSLwZRWycJZzXnFHNaLq8Z+3MEcXsD52i2pFR/1+BusL9r22MoS0mKt5f8gCUn0r6FjeqWGkx4VLo94dxQ9ZPESsY2ALrjdtoj723Dfr+Qlr/Mb6BRHPHE7xbMuZK8UF7zspkjRdLJibtfM8fhbz8X/xChB1vGfKJAZoS+kNNJWsZ6qQK/p5MGo/YHZdUyHgefh56/1eYD0u9FLXGIWvEefSL+saSNOlYrcxKm08dDmeuM92T6TF/aJGK/3ZxkbtB0xI9a+1noenPrZG/b3vJJGZ4j7nnW3RgfYZk5zZ0rUtGsYe+LD6L2r5fdepILEN1P51NvL86/Ewke3f7lOBX9yz0vf7wXp+ArIa1HI9PNDQ17nEaYvKfSRpOnkPkgk2VDYxf2i6I1e7WTxIi2P5F1tZh5SGWljE0aWc7jr4zzoGzmOxKv11zUoXl+cTyaPAlU3MH16FzDeKQf8XVdhZE0P8icrRFFQ5XTooS0MzsL+keM/FaZzYc7WkKJaTcWIXSGl0s+X7ObCWb0Eza7ulzzVrysw1blrv0T6T01mjOgu+lLfZH9iKOdJkFBbd+URW+Yo/8iIaEsFzQhVkRm9Fha838DA9BcV+edlpdhtTgJ0lE6ecVDbx6QzW9favkNvlfgLITCviJWgdD5zRWN9iSLszuOgnm0X/F1UoSCIR3FNO7GtklZP+75mO5Z0fmNuVztO/4r+dBaL0+Cs001NAQ4d40SrITEvrYUQ8D9GHq1ppZ1K57ilNVEznibPQliDW/XB+NtBe0d15tnUse+rqgGkWXWlYDAwmh/9bfyeieWdK65gokcejSM+DJ9Uv6hnsVo8rUxi5Ew2nUsNEZtptvJXUbU8d3nGvp73lNnDaifROFN+NUYbC3h3dAjAR9aZ3UbvOKUui09TraJivrvHN4TQK/6A6GuMaBRIB1+hRE7vzOrz3qyfdWp6a0PHcN9E24azvE0//715ZSd22rrNoOPbfltKxPCG/d8TCebGeB3/bL2yf0r87L690bTPK1yp+XRN8LkksgO1ea+v6RP5aiu94dtx1BTrmvkc+23I5sctCcDlRfOsWFD9koSBs3nyEyibmD+GWodDR0+BrdDHrratjPfd977PzZ23ldkR0WzT6eL5cuu+k/bEf0euneA4pql3Yf/v35dXjIWWvW/u34q1L4r8HX9az4ikn9nRPz8LiInDRmdVgB82C6/m+z6Xrecr3JSDjJIY//pv+83+DHMdLVDTEHBvnwXEWK3oZP5H0YmmGqNCeW7pq/gDnu+P48hv8hCUJarneU8Dq+XIXDX3M3wCPopbrYr2MROYoajhtvUc7pO7tqKtfoVd3DZ7reyLE71PXPD/J1jXPz6t7tl+zF1avPT7R1klVfOvyWZ148Fl50f7z1Afw+Kyfy5F/PvLtOJSk5vhTOF1F+jm2GSqb+JStY//bAZp8EbxwYr5aBlc4mnjh91IzROT78hjp5/KCdX7d4jk+yL+nkjr5uoKguoqjhWvsGxqM59zJtH6JQTFr7EAMwyuoa17ds/2aPdf277PRmZ6vvlEA8weaAAw+Ky/aq8xscBoJzl+YqDKr4dUrGtdYbPT+ywhEr8MKyt/+AvQk60pmNlCQYZQ1ejl4/4leHXuAxXEVf2oCPWuvM9hAREREREREREMz1J++JCIiIiIiIqLXh8EGIiIiIiIiIkoUgw1ERERERERElCgGG4iIiIiIiIgoUQw2EBEREREREVGiGGwgIiIiIiIiokQx2EBEREREREREiWKwgYiIiIiIiIgSxWADERERERERESWKwQYiIiIiIiIiShSDDU9ELddxY2gJbW0F5W/XuPl2ADXuV/IHOG8ZKCZ0BERERERERES2RIINarmOG0/H1er8xuhMi+9eu//10mF+EuLcTpOKE3RRNK5xXl7x/mX+AOdxr5NmPOI11XDa8h2vZuCmVUc5H1BONAM3LfdahgdgNJxa2/BsVz6vyPMM+H4MRePaWzYTCw4NS3/nSURERERElLREgg1GYRFHl1NYtzpjavkv5FDDlqrH28DlMdITk0hPbKOKLP72d66pixMU3k0i/W4TxpMeh47lnRqw9JfV4dVwujGF5uEiChXxL5qXwKLVZy8uiD8/Z+bZtlU2j9GcXnu0IBMREREREdFLltg0ipIqOmPnhoG/l4Cq3k/H9wTte0AZy7h/lT/AuTS67O3siZF0d/TZHdX1ZwT4/+zNqPBNJ7BG3O3/7O+J7+whpwCZjc592vsJy9KQ97m/pMS6Is07M/iD+7a4vvKxekberWuzMQUoWeyHjM6npGPq6Ej7Mg9iqWzi0xmQ2zVwaqwhc3mMZSvmlBlTgEYDWNAAaFhEA/UeNh0s+jzF/VhDBgpyu/77reG0ZaAYeg1lTbRNYORNzDLkK7fefcplpjMbIaoMebMtvOU9/DyJiIiIiIgeV4JrNuhYPryCMj0FnP3jjGT3RsPiNNBs6M6fT3fH8WVi0hldxobcaVsDDt3PmrF3Y2B/7Kv1vUmkD+FkZQArKOcVVHcmnc/nCycARAZHemIbVRNoOvt1R+3Vch2rd9vO97a+zzhZGmq5jv3ZH9iyPzsLCSIEEMEXqVP6dhxOqEJXQ7anY3liEunDK8CsOftNe7JNppCzr8PhFTL5ZKZbGIV/UDWnkJm+wlFHdouOOhZQ1BaAho7mnenpwIeTO9FWcCHGeZZUu2yY0j1VUZKuwXr+1vreMZrT74OnIeRzmFNMXNREWYgsQ/kDnO/O4MLe304Nce92VBlC/gCro9I5SmWv+3kSERERERE9nv8kuTH1jegCi87xifSJCAw4+QpmDVtyyv/0Gm5aawBEJ37ZiTUsIIMpZFrXWHe2ZaKdB/B2ARmzhq2YMzVkxYUpYHrK2afY7C1UAAZO0L7fw/ruNc6z206gobsV5GYVKMoeblp77l9firPOzSpoVsKzPdRy3ZPtYF8H45eJ/TEA+RTalybmsivAr17ONooUDPh5C1MZRwZwj1FXke7j+gIZpBQAUJDKA/AFnkqfb3GuAZ/eASjH3aaJ6o7buYZm4CaRtQlMKQtHR/1yDYtv3U+VJft+evcfVYaQnYFy+bWPgFtUGToBKm087K5hv1VHTr4WREREREREz0xywYb8gZg+cVjD3MYaTjXdDRpAx/JERK/18hhpVRcd7o06yj+ljpT1WYcB5857gho+JXUSJbjTJkKPoYOvQ+zoPnJvFBYjp52o2XHgcwMPWg7qL8C8i53H8eiK1vSJI6xhXTuAWtmEgRWkRk20fwKobGLezgZ50iPtzjwTAaeicY31XQPFipstEFaGBjunsDIEuM+RtQDrbnQ5JiIiIiIieioJTaNYQVnLiukT+iY+nZnIbPQ+X9wofEUTihi9B8Roe9iifD9vYSozyOWt/X+TMicsztoPmoH1affvm3fxjs8oLIoU+NGU1IEU60p0pv6foH2vIKcFTUUQ38ksaM7xxF2zAT9vYY4uYH3sFtWKjvr9DNYXYn7X/r6VsdCzftZs0AysW9MnSuoxmsojLfgZeZ5NtE0FqbeBH7ryB1idvkI9oPNe+lyDiSlnccuoMmT8MoHpBXe6z24W3jvmHkvRkMttVBmSiQVBt878U1BinicREREREdGQJRJsKBp7yKGGT87aBmLO/nrPP7lorfuw9FF01CqbmD+8khZjlBbMcxYivMZNaw9z32ueNRtKn2swp9fEd/K3OJLWNHB+PSNgEciORSd3Z3DhW+yy9LkGLO11LNJXUsWvaexL37c76vYCmvbxbB1exb8syhRG7qowAJQaJjLTCh5+iWttL1K4v6RY01F8ixxWNvFFPtdh/nxj/gDnG1NoHtqj//b93IsMWHgWBLXPIWzRyjCR53mCQkUuR3KQQFoLYncGFzsh6xxUrCCata5FZBnSVemzNeBMXrNBx9GZ6RzL6t0xqtKCDlFlyL9w6f7sD+eZ636eREREREREj+eP/6b//N9TH0QyNJy23qPNuewU2yOVmfwBznfH8YULNhIRERER0SuR4K9REBEREREREREx2EBERERERERECfuNplEQERERERER0XPAzAYiIiIiIiIiShSDDURERERERESUKAYbiIiIiIiIiChRDDYQERERERERUaIYbCAiIiIiIiKiRDHYQERERERERESJYrCBiIiIiIiIiBLFYAMRERERERERJYrBBiIiIiIiIiJKFIMNRERERERERJSo3zbYUDSucV5eeerDiK1oXOPm2wFUaDhtxT/2pzvPFZS/2cecDLVcx03LQNHetqEltOXXsc9+y5Dn+y0DxUSOZvjE8Vr/PcJ9c2k4bdVRzg++pUHv2evep7QtzcBNQvfktVLLdc9zxHJCREREg/ptgw0vTfPO9Pz54deJ58+ejlXrGqeP2bd6JMYv7zUw75pPvk8RGAgJqmiGdT8COujOZ52fD+s8w8uQv+GefKDo0WkG1kdr2JqYRHpiEmlVdz7yd5risa6J9Iw9xvXp9tw//j7d6xDU0Yt6HqKCP8M5zybans2aaFe8x+nWk+K84tab/ZWhsH1356/fn8Oz+ezKpqdO9QcMRB1nf+4tu+HlhIiIiIaLwYbn5L4No6NhJBrJno7VxCSW9bCNPJYTFN5NIv1uE0aSmzVv0cQJ2vdJbrS/fRaNa+yPfcXWmdnxFbVcx03+FluHVwEb1HC6ARxZ9+rocgrr/o7LsM4zsAwBMK/wMJYTHZh8Dqn7K/j/SUmdRHpCRSnhQxoG9Y1inWuymofuM5Z42Q4Tds8efZ8aTlt7SFW2UQ04lqjnAZqBdRxb1+4Yzem1zs72kM7z4dcJ8PO2ozzDNDGSf+xO+wpysyaODq+QWegtWGGebVvXbxtVZLH+HALKz6Vs5g9wvqGgumM9mzs/MLdrB3FXUP62hhHp+l3M7nWUv9ByQkREREOTXLAhf4DzVvjIlmfkxj9q4/tuL6mT3hEh/whzzh3tiDtSlD/Aubwd35+dkb3QY7VGWHocFTMKi9borOjEO8GEfA5zyhWOIjs+IeeZP8D5twMUpWP2HK9npMgdiVPLdZyXD8Q2pe8735W/5ztP/4ig/OeicY3TsnWvDc25d06jUFedDl5JncR8wT+SFnRtxd95Gpb+exglYp8l1TtiLjMKixGdUR3LUqe91LgCRlPufel6nv0JL0MpjOAW9btx5PKAmh1Hu3HrflF+/gKfE9+ov/RvisY1TjV5VFG+7uHfs78bOlIZUTZvWtfYX1KA6TXvd63z8H6WbCq22OYaMlHXx3cdvHWGL8sl7J75rkNn+Q64XjHruPB96liOCGRGPQ/QVekzHfVLYOSNe927nmdfpG1VNjHvD5Tdf8WX+xnkglLmw945scpQRGZQPoe5+wZKegPN6YUBpiSZaP+UjjWiHo96J3nq3IBnUP7u/pLiOYJnVTbfjkO5/IqCnZFQqeLCVJDKA0AGKeUKX5x69ATV76ZU/rqUEyIiIhqaxIINxQ9ZPMijgr605tW7beezre8z+Ftu3O16vxu381U0/CP+3kaEsjSD9k6yI0VGYdE9x4ljPCx9HO4c97fjUMxbRCXaR56nksUq/rFGg2qAfbyagRtp9D29U8PIhttIFNs8RlPJYt0azVTGrC6Wror7GDTC2UVmaRxfdmowp9ewereNI1+npHc6js5Mzyiimp2BctkQZcHXaQ1OwR2u4sIUzO/Vxxklj9Cs3SKV1ZAbu0VVb+NBGRed5som5icmkQ7M0lhB+dsecvfHoSP+mY0F1KUsjtXyivO9ue/uc390n8W+HSjKH2DV8+wuuh2JiLJpP39bZyZweez9rnUe3s96C+ZkNoKCIxpOW2vAofvcy89j0ZCvzzGaMFHdUZ3ytz/21b12h+jMculVZRNfLhXMZaVOpVTGOlLyHz0tX8PitImL2vDT7rspNUzkPviud/4A57szuNiR63FrJHzAMqRmZ/DQ0CECLlNY7OFWK0t71v3aw9z3f9znAQivx9H9nZRZss/V+35Qy3Xsz/5wnsF+6vMOwyqbP29hysEb7SNyioLUW0BMk5CvtYb1JcV9XxEREdGTSSzY0LwzRUO9oyG9gtysIjWkxAiK3RAQHcPj0JEu/6jNqdSgWJw2UdXDR/zNM7vBJtLV3U6tfySyh0XxPJ3XNWRgj67YxOhg6Ahgj9Q3Std/E36eACCN+EijOuobBebZv25wxh4pemv92RlFMlH9nNycDXef8khUXMHX1ih8lUYRV5CbhXvMVmDE+9+ityE/RGq5jvXRGj4llL0wkMom6mNrSDV6mB5gZ9ZElGe5HLmZGtlSd1cAAAT0SURBVP7RRl+GR6WNByWL/YDAT9eyOUSB0yi0BWTMGo5iPwbusRYXpjwj5DcbU94sl26s8uuvH0ufa8BszgmGLE6711pMh/H991hTQpyU9n8e7RmLpP+L6uh7bxnzj5IHZGJEC5tCpmF9CU5GQqnhm0rhC3z6M25M3zQA7+fB9XjndjvfScHvB/FeblYGKBePWTYrm/h0pmDdPs+FW1RNO/vjBAW9hhEnULiA9pn5KGv+EBERUbT/JLUho7BoNcxFwwdmDVtOI8JEdae/Dp6z3USdoPCun86fhtONKTQP7QaWhtPW+4SPzcv4ZWJ/SYxAP/XI+POlo355LUa2fuYwhx/45Bkln/L9+/7LYy+ckcNH6+iFeDsO5b4BA4ChTj7lkUh0LE/ocAJ/u5Ceq5el1LjC+sYablprAESncV46j6GcV6WKC+0v5PKA8XYBmcsGlq2PisY11qd9/95THw+Lm82S1NSgwZ2gUPmI82wGF8PelbaADBRkdkV5thUBERjQVaRjlYMTVL//hdxYBkC36/j476SuhlQ2vW0BDaetcdSdaRWbmJfq86JxjVTjuZRBIiKi1yv5BSJ1VaQS2ynaOEH7XkFOC06VNGo/YE6/7yOtXUf9UulMkU2EPTK0grKWhZNbkE9hRJpLq5bfozNRs781G0Lp/6JqBiwwOCDjlwlFTrfVPiKnXKGeRKfIHrnNH+Dvpe6ZGfGFz5Uufa5hZEETaczyaN0TZTYUjesBAg2as17GU69IL7IK7KkRvRCpzavyL2Dkg6aTiFHirTN3jvWgZdP4ZfaWPdDNz1uYij33X4zcu8/9Csp5aeE6X8q9yPga4OdErTUEOtedOEGhYmIuu4LiguLJPnqazAaxuGTfgQYrSD2Un1fUG3hYeo85+88/b73vnPwBVn3TPqLLUHA9VFyYkrIT3GlFvUylsLefm1XijczHeicFEVkOTuaFZnSs2dB9309VNu3smX8D116ws8niZyIRERHRsCQUbPBPS1gDDqUF8lQxV3Q/aDpEZRPzhyZyu70vEFlSt1EdXetvOkQYa86pOJ49pCrS/GzPZ9fYH/sRuGp7sk5QeOc/zwR++lJXsSWnpW4o7jzzLgIX6bOCIUbhK5qKda93x/ElcB2Aflm/3qAELPpWqeJidA37sz8Sa2R6ztM+J8NtnDtp8ZgS19HufOQPsDoN9zs93zNrJXYnYDcsVlBNPhf7mJ2O1AkK78Sc9t7m//u/J9Y1cDqivpTy/dkf7lSTAcqm+P6/nvqmlw5s4JoNlU18OoNUJ8i/1iA6VnL9Je/TKCyKXyOJSJ+PVGnjAYDipKXL59nAw9Ie1vE1oeCZXY/vIae4awgELs7pex7sTq48Xa6n+tj6lYDhzLPXcXQGKHZf2v/O2c3i4dAXgOy5DAWvU9G8M5GJ+YsY3jUbYgZtBngnlVTxqyE3reuIX9aJ2vdTlE37GfQG9TwLXY59fcRpQ0RERBTlj/+m//zfUx8EUVzPZmrCkL2W83z5xNSBVEWaKuEscJnEqvfPcWrCMLyW8/yd8J4RERFRtMTWbCAaLvGLABlc4WjiN+6AW7/OojzKHHsaXAYpX/a5+kYBzB+RvyATi73eyOUx0r9xZ04t17G/pIi1Ln7j8/ytvJKySURERINhZgMR0SA6FiG9SiirgYiIiIjo5WKwgYiIiIiIiIgS9X843WwjQTE21gAAAABJRU5ErkJggg==;" vertex="1" parent="1">
                    <mxGeometry x="200" y="-260" width="771" height="234.75" as="geometry"/>
                </mxCell>
                <mxCell id="41" value="" style="shape=image;verticalLabelPosition=bottom;labelBackgroundColor=default;verticalAlign=top;aspect=fixed;imageAspect=0;image=data:image/png,iVBORw0KGgoAAAANSUhEUgAAAc8AAACHCAYAAABwBNKeAAAgAElEQVR4nO3df3AT57no8S9n4klRibGLbIiJjHFtHIcDTCyoKYYZXAYEBhdIMuO5IU1hctEUGEzLSYrj20BMco05JPQESphxmmuXhsx45gZICAZBqTlDSK2COOVHDuFHDbZiQ20r2IYxMG5v7h/SrlbSStYabIvm+cwwSLur3VcraZ99nvfd9ZCMjIxv6CfJycm0trb21+r/qcm+6xvZb30n+67vkpOTAWT/9dHD+N37l8FugBBCCPGwkeAphBBCGDRk3oJF/Va2FUIIIf4ZPdJ63T3YbRBCCCEeKlK2FUIIIQx6ZLAb8DDq7OzE7XZz7969wW6KIY8++igWi4Xhw4cPdlOEEOKhJplnHzyMgRPg3r17uN1SphdCiPslwbMPHsbAqXiY2y6EELFCgqcQQghhkARPIYQQwiAJnkIIIYRBEjyFEEIIgyR4CiGEEAZJ8BRCCCEMkuApRBTMZjPLli3DbDYPdlOEEDEg5u8wZDabKSwsZP/+/bS3t1NUVITFYglZ7s6dO9TU1NDe3g5AZmYmubm57Nmzh+7u7pDnA81ut7N69WrWrl3LkSNHon7NggUL+PGPf6w+/8lPfsK+ffv42c9+xpYtW6isrOy3NmdmZlJQUEBcXJw67caNG8TFxTFixAjd19TV1dHV1aXu6+zsbDIyMqipqSEzM5P8/Hz27Nmjfk6DqaioiCtXruByuXpdtr29nZaWFmbNmkVNTc0AtM4v+Ddgs9lob2/H5XJhs9nU/au3T7Xv0WQyUVRUFPLZ1dXVBewD5XO/ceMGHR0dTJgwIWS9brc77H4YrN9aZmYmEyZMYM+ePSHzgvehUUa+K+LbIeaDZ7BoD1w3b94EYOXKleoBfbBMmjQJu93OyJEj2b17d8C82tpali5dGrDs+++/T2pqqjqttbWVe/fu8cknnwDwhz/8gbNnz7J161aAfgugly9f5p133gG8B59nnnkGp9PJ5cuXgfAHyczMTN315eTkEB8fH/B+IfTgPRCUDPLChQu68202m27QAHj55ZcDnp87dw6Hw/FgG6gxZswYuru71YN+QkKC+tjhcOByuSgqKqK+vj7ifuzu7qaqqipgWlFRUcBji8XCnTt32L17txqo9YJruH0D3u9NTk4OM2bM6Nf9orfd9PR0ioqKoj5OmM1mioqKGDp0qDptML6PA0H5DdfV1am/YUVmZiZz5szh8OHDIfOEvl6D57hx40hJSeHYsWO682fOnElLSwuXLl164I1btWqV+qVeunRpxLNdLZvNRkJCAh988AFWq5WJEydy8uTJB96+aCjBcP/+/ZSVlanTN2zYwJIlS0KC6ZkzZ5g8eTIQmnnOnj1bDUxHjhyJeAB7UKxWK1OnTgUI+WHFx8fT1tYWVXZhtVoxmUzcuHGDtra2ATuoWq1W8vPzAfB4PJw8eZJZs2ap2fTKlSvVZT0eDzU1Ner76e+gGK2MjAyuXLkCgMlkAqCxsVGd397ezo4dO9TnwRmmxWIhPz+/1/dTU1OjZmhGhKsGWSyWkO9of+9Th8PBM888Q2ZmZtRBoLu7W83ctScTgyn45K2/99vly5claBrUa/B87LHHeOuttygrK2P//v0B8woLC9mwYQMvv/xyvwTPHTt29KnU19zcTEZGBmvWrKG2tpaqqqqw2VB/UgLn+fPnAwKn3W7nhRdeYMuWLSEl3OrqagoKCgKmtba2BjzXvubevXu6B64HRTkDnzhxIs3NzUDoD1t5HO7kJi4ujuzsbD777DOam5spKiri5ZdfHrAzfLfbzenTp8nNzVWfB5f2lCw6kuDSXVFRER0dHf16UDOZTJhMJvLz89WTACAke1f09PSo33m9NocTnIEtXboUj8dDW1tbyLaBkHskx1K2ple2NeLxxx9nzZo1Ad0V4D0ZmD59ulqN6Q/KiQ/Au+++q57ILViwALPZHBPdHcKr1+DpcrkoKytjw4YNAGoAVQJnWVlZ2Kz0QUhPTyc+Pp6ioiK++OILNSvTo5ydnT9/nvPnz2O1Wpk+fTrNzc3Ex8eH/Bj625YtW2hpaWHatGkhARDgzTff5M033wS8JwplZWXqQXHSpEn85je/4fe//71alp09ezabNm3i1Vdfjbrf9H5oszbwZmnKATX4TNhqtZKRkQEEnsW6XK6Qg2pVVVXAQWIwDrra93bnzh3q6+t1l9MGn46ODjIyMtT+Q5PJpGaE/SW41Gq1WjGbzX0O2HpZ4pUrV9TsVe9k9dNPP+3zurX6O3tatmwZI0aM4M6dOzgcDmw2W0A5FgJPOjwej+7v6Pr16yHveaD6PGfMmKFmwlra9mhPXpWTJW3WqP0cgseCaBUVFWE2m6mpqSExMTHgc9eOd4i0jm+zqPo8lYCpBFDlsV42+iCZTCbi4uLweDyA909qvfXWW+q84D64YHoH7oE0Z84cZs+ezSuvvMIrr7zCmTNndJc7fPiw+thut/Paa6/x6KOPAoEBtq6ujq+//hrwBtKtW7eyffv2fuvzVPafEhivXLlCRkYGPT09gPczKCws5OjRoyGv1RtsFMztdg/q5+N2uzl69GjEMqU2YLa3t5OSkoLJZGL06NHExcUFlE8HQkZGhm45FPyZf/C+V8q2Ho+Hnp6egCwxuEyZnp7O0KFDmTVrFidOnGDhwoUhAQj0D9o1NTWYTCZ+9KMf8cc//pHu7m41o71y5Uq/l8CrqqrUsnNHR0dAKTvcgCGz2YzJZAoIqleuXBmUAUImk4mUlBTOnj0bdhnlt1hdXa0Gufz8fG7evKn2UZtMJjVrtVqtFBYWhgRjZbmqqiq6u7tJTExU55nNZvLz89XPV7uOwRhsGauiHjAUHED7O3ACjB49Wn18/Phxtd9M+wHGx8djt9vVTvBIAz0gsI8LIo8a7A+TJk1iy5YtuiVb8A/+Wb16NRs3bqS4uDgg+/zkk08YO3Ys06ZNw+Vy9eto22Bms5mOjo6ol/d4PGFHXGoz1VjW0NBAbm4uJpOJrq4u4uLiMJlMxMfH09nZOaBn40rXw5dffqkGJ/CX+pQsWDvQS9nPync8OFhqv/smk4mEhAT+/ve/YzabGT9+vBqAjIxWvX79OsuXL+fOnTvExcXFfNai1+epnFQ1NjYOaNt7enrCDm40mUxMnDiR+vp6tU3K4KwxY8YA3sFldXV16nfjwoULZGdnM3r0aHUQZVZWFmPGjAkbDK1WK52dneqJUWNjIxMnTgw59n7bxfRo2wkTJtDY2EhSUhIdHR3U1NSoBwMlcHd1ddHY2Eh6ejqXL1/G4XDonuEqg4gG+jKDvnjuuecYOXKkeuBSss8dO3bw9ddfM2vWLJ566inWrl07oO1S9qvNZgP8/XHRCD6IPwza29vVfl7twScxMTFgEM9AycnJUbeZnZ2tZkXZ2dlA4MhhbbUgEm31YMyYMfT09NDd3c2RI0fIy8uLqp+tp6eHxx9/PGQUspL5arO6WOobjaS9vZ2zZ88O+KVJcXFxxMfHh52vF1w7Ojowm800NjbS09Ojfk/Be2LQ09NDfHw8N2/eJC4ujieffJK6urqIn6vFYgn4PHt6ekhMTIzpk6CBFnXw1PZxAiF9oP3h66+/Vs96wHv2a7VaqaurC1iuoaGB/Pz8sD/0zMxMnnzySeLi4rDZbIM6gjI5OZnvfe97EZeZM2cOoN/vuWHDBlatWsWOHTsGpN8zksTERPVg2xuz2YzFYsFqtcbMwdNisbB06VLu3LkTMu+73/0uDQ0NAQef5uZmenp6GD16NCaTaUBLtpmZmcTFxXHhwgW6u7vVDKmrq4upU6dy+PDhkM9BqRIoB0K9P4SunAANHTqU7OxsLly4wMSJE7l79y779+8PuS5UCYTKyGRlHefOnQvolwvuVlEukxjMS8aMGuhun+7ublpaWtRuAj16wTUhIUE9SYqLiwsIckrXl7Lfe3p6+OKLL5g6dSpdXV1hu7xiZaR5LIsqeGoDpzZY9ncAPXbsWMAdXbTlBG3Goy1dBAdPm83Gk08+qdbvi4qK1FG4AzE0+8iRIwFBbsmSJaSmprJ7927+8pe/MGfOHDVY6hk6dGhA5pmXl8e9e/e4fv26GlxnzJjR7+9Dy+FwBFwOofSHaH/w2kFDmZmZJCUlcePGDXW+tj/1fgbARMNisWCxWNS+c4W2ZK8djW02mxk+fLh6Bq/t96yqqsJqtQZcd9nfTCYTubm5OJ1ONUDW1NRQVFTEqFGjdL/LZrOZjIwM7t27F/A+lYFS2oFgbrcbj8fDV199FXCyqh2sFKnPsKenR83Qw5k1axaNjY0DejlEtN8tvT7PwaJcsxt8reqCBQuor6+npaWFqVOnquXkzMxMhg8frj7v7OxUB0l2d3eTnZ1NXFwczc3N6jGzubmZW7duUVBQoPvdaWhoYM6cOTQ0NMjlKxH0GjytVqtu4NT2gd66datfR9yCt5Y/ZsyYgGHo2hKFMphFOYArBwmPx8N7770XcNDR3kFloEoySsbY1NTE7NmzOXPmDNXV1bS2ttLR0cGqVas4cuRIyIChe/fu8atf/YrKykp1YNFvf/tbnnvuOa5evaqbNfU3Zf99+eWXVFVVYbPZdE9IlMEiSp+S3sCcgRh+H3ypCkTOKoKDY/DBd6BLtoWFhbS1taknjcpJy7lz5zh9+rT6WSjtNJvNjBkzhs7OTiZPnhyQcUZ638Enq9GwWq10dHT0Wn0YyNKnEgy12XEksXSdZ3t7O1VVVerlXAqlzKp8xkqwDx4Jq5xUKWM7tNcuaxMOl8uF2Wxm4cKFITeRuXz5MvHx8SxcuFCdNtBjQx4GQ6xW6zeRFhjMmyRA6BmvdiRh8EXt4A+a0XzYfb1OL9pSjvaaTSXL1KMtxWqvB9WWbZ977jlaWlrUH42y7uA7FEXDarVGtZx2X587d47jx49TVFSEyWQKGQSilOU+//xzpkyZol4yoF0u+NIXiDyUvj8E38JN+x7dbjf79+9Xy43p6elR3YiiPw8sSt+lEiQB3WxBGSh3584d/vSnP5GWlsaePXt076ATTDtyVvt7s1qtEd9/S0sL//jHPzh69GjAbTEj/T77W7jrwvtyez7t4EO5XEME6zV4ilCx0mfXV9EGTyGEEPrkr6oIIYQQBknwFEIIIQyS4CmEEEIYJMFTCCGEMEiCpxBCCGGQBE8hhBDCIAmefaDcwOBh9DC3XQghYkVM3xg+Ft0YW8i92R8MdjP67N43/4/Ov2xlePtfBrspQgjx0JLM81tmyGA3QAgh/gnIHYaEEEIIgx5pb7+JRE8hhBAieo8wZIiU8oQQQggD/mWIRE4hhBDCkEdgCEOGSOFWCCGEiNYj33wjgVMIIYQw4pEhUrcVQgghDJHrPIUQQgiDJHgKIYQQBknwFEIIIQyS4CmEEEIYJMFTCCGEMGjA/6pK6uJ1rJgCpyo389E1nQXSFlFqT+Z4aSXH1edWHut0sXPzPpoecHtm2N+gIO12UHvyWFE+l9Sotmnh2XV2Jg93U6u0OaptAgRvVyNtEaVF8EENvGC3wslKylvnsWn8F7xa2eTdJv2zTx68YnY5J3Mq90W2hVnCtrmWspkjoljXRT70rae42slkVy4vbo/u9Zc+8C4bk+ZVcGA1bCsowaG7gI2K2o1EtYsu7Gbq0nB7egCt3kW99VRQW4rZ5VwCOp9FcbWT57O1UzwcO9bOzJlZoeuOlfcovrX6NXh6A+Uw3XmT7W8wOWCKN5CcfDqLxxjGjMUWju91M2OOlceAW5dcBoKEEtDg1slKyve69RdLW8SMNIBhmva4OXUykVSA4VZWlFsD2qcb6PrQLvAG28bF69hkH0bTgdfYecK/ZOrTWTw2fBjzn3YpU3h2ugVoJTUtiazhwLW22Aucq3dR/4LOwQ4Y53TyfNA0z7H1zF/nwLGuICho2KioXUJLQfiAu23pbnY5newil92adSntOPDEbv/zGBIp0Jc5nZQFTfMGfQclBUHvZV4FB4pamB+TQcRGxTwzx7Zv87bz9XwC3vELTupf8D32BcJtS3PZhnf/LPmqIPyJzupd7Ar7rRBiYAxJG5sR9i4J3/nOd0geNSrsizs7Oujs6IhuS3l2Ns23BK1AL3PyZ3KnTiYyOUzw9fIFtNE6647AG1DxZ2+fJbNivsU3PdWbdV47RC1zKUgMaqOSCfe6FW0mqg2a2vdtYcbiecyYYvGtTxugLTy7bh58BlnzLXDyEBfHTYeazZx8Wuek5NohXq08QewpZlftXEaMaMdzAU4t1Q+G0WeeHo69XkDJQd9TX8bmODcRG++wjTX664nlTGVeBQdWTwTa8bS2sHupXvZpIPP01LFBL4OdV8GB11NwBFcAAjJEb2Y4Tjs/YN/1XkVQ1qmevETKqkOyUxsVtWtgu/8zLq6uJaUm/HMhBkPEzHPBwmcY9+STYedf+vJL/m/Nh71uRM1Arx1iZ9t0X9n2M5Ltc1mxjqAA6uajz9xMHg/JU4YRLuPzlz79grO3ENoAnjfPV2r1bntn8jpWjLMyY3EWqbiprTzB8bQkZtitzM/bF7Jef0YbWrYNbZubk5du+08EAjJarWFMnpPHR5UnmGH3Bdv5vllT5noz4zmLIHGYGoBZvI4VU25SG4uBc/Uu6l+AD3MPMdk5mVNLTzHZ6WSXTskuMPOM4gCtOSDPP+gNvjbfrIAMVGmH3u6OAbbNtZRNOMuG7WcpXg27a6DYWUv+68HBISjz1C2JPij+0rgStHet3mag5G2jYh44ChwUVzuxcRFGZOlm1QBcOOV/vHoJMznLhoP+daUkt9OiPi9mcnY7pyRwikEWMXj+7cb1iMHzbzeu97J6X98hqJlR6uLpvnkn2FkKK8rnsqLc6gt8muU7XRwoPciUdfagEq83mLYCcJPWa8Do3t6mjhOVvHoCNZPkZCWvbvaWd4/vDVw0dXwenAgMTo9NsbNpinaKhYLyNygIs7mmvZt51bde5WQiUrA/XvkaxzVZrhqs8+xsmg90epcbkzQMuBn12x4QSpnuwm6m5vqyGQC28WLuNoqrndQ7NQdovbIe+mVeL2/2ue1cLWW1FVBQEjB3xMyN1Ds3Br5Ee4COBb7ytufYeqYWeLOzYoCDJcw/aKOi1kn9an8GqZ+ZZ1HvXKK//nDZp2EO6s6tofgJG0S7tnn5TBiRxUyn05u11qRwYHVLFO2xUTEvC8+53ZrlskihhTp13SmMuHBKirZi0EUs2wKs+vlahg9PCJne2dnBjv/YGuGVQaXKKISUUze7vMHzpq8kmWdn0/xEb/Cc8wYFacGDdDTBN0SkDNZAiTikz7P3AUN6WXIkTQdeYyfeLLnppIvEKXplYu/2sL9BAbFTsi2udvJ88kUukcW4PgxuidTfZdtcSzHvBGSVyqCh3U94521jTcgy/ZulGeUrv7Ze5FJ2VmB5NIzATDpSX3BoyTNA1GVbbdZfzC7nXFrUTDjKsi02KjZnUbLO1+e5OgVPuO+EL9ATfIJwYTdTlxJaRvaJ6QFg4p9erwOGPt23lyU/XaY7PTI3H21+jY98pdJwWZYSvLT9gyHS5rKpfK7vye0I2zzBzlLNRpQybbhRs3l2Nai1ajJD/3Z9md999icer3yN45rAfutkJeX/ZVVHEddeyqLAV9b2bsfCs+sSOVV5iGT73KDt5/GsfTxZaRb+NS8P0uDWydgZNuQd9OE9wIc/wBazqzaF3QGZiLavTTOYJIjnWOj2AGyb/dNiO/NUyq/F7KqNkI3pDQbSDsaKlJXfdxuzeF5d/0U+zC0wnOnZNq9h5swR1DuXcOmYkjde5MPcU0yuTWF3QQtLNP+DjfwJ7Vy6AC01BZRQwYEiUKoVQWv3niRcua83KcR96TV4Nl67ysn6eqZMnapOO1lfT+O1q4Y2lDr/DW+5sS+uBWaewXrN7IL7GK8d4tVKWBE0yGiG/Q1mtEUYnRtxW6Fl24BMWpOBPzbFzqZxLnaWvuYN6GkWGve6GWN/g03lc7l18mMuMozJdt8Jg+bk4dbJSsorYUW5hcTp03mM25z6r/DtHTzaA7AOT53/sdo3msspzeUnwbyZp5Y/C2LkCDwuB47tDl8wijZDGkQj8sP3AwJc2K0+LK528jy7mZp7KsL78gWV+6aU1L1Zsm2zjW2GRi3byJ8wwl9VWL2L+pEtnEtOifAa70lFcXUtkZYSIlZEdanK8f/8I2PGppE8chStf7vB8f/8o+ENRc48Da8usH2Vr4WWS3u7PjTP7h9RmwZgobHNTcEUO6VEDqCho2KDyrZKPyqgZuB67St/Qy3HeoOi9n08SnL5XBJ9fZ1KP+nNVjfg5vy1uRSkebPV+7t8pr9oB50E82aequ0vMnW7MgfGvRBl5jkvhRGeFi5iIz/ZQ8sV8Jc1fZlmDF+yErFfcp6SeXkpl3F491CkE5MImefBFjyvTyRlHqAp69qeMOP520WdFzgo2Z7PgdeXUIzDwElI4OAm7/pPQXI+zzu9mXOZE///2hOpAClU1DpDRxhfqHsA2bUQ9yeq4Hn37l0+qP4/jBz1OH+7cZ27d+8a3pDxzDOZ+fZ53odRl20N8A0YmqFkd7hp2lvJq612Ns2fx4y9kW54MEznOlWdzFM7O/hSnU5N5ukLwJvKNUE5b7y373aKnVJc3JziHWF7wHcC0th2G9KGQdp0nk07EYMB1EDmGSRcX1Zw5mmbORHOvYNj9RLKfCM0bZvXMOHcO5SQ5R2ktP1FHNW1VMxzxN6lDQYyz0DhTkx6yzy3cerCEp4vKoaDvlfPq6B4Jpx7PczJxcESts2spay6mG0G+4z9Nz3wcOz1izAhUtlWTwslBbl6a2aXcyIthlojxIMV9U0S7t69a7hUC/hHtRo13AKfVdI63ZshBvY5Wng2EehspbG39dw0eCMBnfbeagteg5HMU2+9eeooY3UbJyt5dS+kpmmW9w0aesw3YKjpM28G7b9Lk7dPdLLdTmuUdzcaGDoX9BsQbeaZNXIEHheaEZrF7Jpwlm0FDsB/o4ZtNWc5oA0YMUGvLy9afcw8gW1L15NSuzFglO6lD3Ijnlg41h1iiXMJBzZfZP46ne0HZ9C+0dOeD3KZ6tpF/bwW6g5C/upo3tsIZr7upB7CnzzMS2EEcrmKGFz9eIch46NtvaXdVJKHa4LTCaXkGTyS9janKkPLsYFl4NucOmw8cgeuw02tpoSrWyIOdm0f5aX7NBNCRwF7g2VoabgpICDj7+9NW0SpXcneNYHad7mPckemwRZ6i7Ve6Ny8ILrMs5jJ2Rc5tTSLyS9cxLHOgW3zElq2v0hWtZOybO+6XwRf9rSLinnEQPZp4GYHPiHXrfY584TeT2y28WJIsqcN9I7eg/5B77W3AMXVWVw6+CIObOQr6/KVZ7Jand6y7QXtpSm+m2AQWLYO3m+eY+tjty9bfCv0eqmKEEIIIQLJX1URQgghDJLgKYQQQhgkwVMIIYQwSIKnEEIIYZAETyGEEMIgCZ5CCCGEQRI8hRBCCIMkeAohhBAGSfAUQgghDJLgKYQQQhgkwVMIIYQwSIKnEEIIYZAETyGEEMIgCZ5CCCGEQf349zwHkgXbL5Zjjb+Nq+rfcRj669f6Rhf+kp/mDKPj9Hu8u3/w/06mEEKI2PFQZp6jC39J6YaNPD91sFsSjRI+bficnYujWHTxDv7ccJmrDZe56tzBwn5vmxBCiL54KIPnKPOwwW5C/9i7ih+kZzK28r/78OJCdjov82nJA2+VEEKIIANTtk1dxMplOSR0neZ3f0ripzYL4Cuxpiyn1GYB4JpjPR/WKy/K4/kNNtKUp00OyquafOVZ76Q020ZKf3ia3/3apdmY5nVNDsqrTqhzrMs2Ykv1Lxm4PYtm3W5cp7VvwD8v8DVCCCG+jQY48xzHQl+ghGFYn/0lK9XnkPbDRYwGQgInQKqNlYUje93C95/VvC7VppZ2gwMneIOvf74/KIMFa879ZLclfKqUXxteYnzQ3NKPlXkGy7Pasm6DP8tcuPNzrjZsZW4SjLcr8wNLxX3ephBCiBADGzzj4a9V6ymvOk2H7vMkRgGjC/P8mWOZf35CxhOc//V6dUDQNcd6yn+9j2Z1A8PgynuUl/mXSUiyQOoiclMB3DjK1lNetp7fnb4NQFp2nmb+bVxV6wNe7+XG8Wvv9N6zzhI+bXgJKjMZm57J2PT3+UIzd+HOz1nUstY3L5Ofn36a/7WzMIqdV8Knbz/BvnT/erF/TCnw8YppjE1fy6E2+ELd7jRW7L3fbQohhNAzsKNtuy5xvgmgzRsMuUl7wPMgqTZKN9gMbOA2fz3jHRl7o/02pAZlj11t3PA9bD5ziY6cHBISknzZrrZ9YV4fjZIfMr7tMD+v0JtZyNycJJKStnK1Yat/8rnxwP7e18tTjG+4zHJ1YhvuxcDeSC+8j20KIYTQFduXqgT1WSpG9XV9vsy2GRg9aZw3WHe00UxSyPz+G5TUxqF/82eFhpx7n7ELdaNy/21TCCFEiJgcbdt85pK3jJtqo3TDRvVf8KUpabaNlP5ikT9zDKdpH84mAAs237p+mjMMuI3r6AlocvHXrsD5gf2jFmy/0G9DiItf0Zb0NHMXg3cErLbPcz/uG0nMLelDn+PFr2ib8FKE0bT7cd+A5DHB5dj72KYQQghdMRk8adrHu0o/qA7X0fDzwnFVvYerSztFe0MFN46PNOvsOo3D1ydq2N5V/G8HzH37MlcbtmLZ6+2LVJQvXMsh5vAfOgN/KPnYO83+FCT5llEG9+xdxQ8q/1szICh04E959WGwbQ0ZMBRxm0IIIQwbkjY245vBboQQQgjxMInNzFMIIYSIYRI8hRBCCIMkeAohhBAGSfAUQgghDJLgKYQQQhgkwVMIIYQwSIKnEEIIYZAETyGEEMIgCZ5CCCGEQRI8hRBCCIMkeAohhBAGSfAUQgghDJLgKYQQQhgkwVMIIYQwSIKnEEIIYZAEz/tWyE6n98CnGmoAAAP6SURBVA9M/3lnYcjc0o81f7z6Y81foF68gz83hP/D1lDCp/KHq4UQIiY9MnCbyuP5DTbSlKdNDsqrTkDqIlYuyyGh6zS/+1MSP7VZgNu4qv4dR8pySm0WAK451vNhPWGWh47T7/HufjdgwfaL5Vjjb+OqOsGIZb5tKtvzsS7biC3V3zp1/Wo7fW1oivSeSvi04SWoXMuhxVuxBs1duPNzlvM+Y9MrAG8g/fPOL/jBiv2wdxU/2KssWchO51aWl8DHFXgD69tP4/q39+HtlwzuZyGEEP1tgDLPoMAJkGpjZaFFM2EcC23K82FYn/0lK23++Wk/XMTogHVql4eEnP8REAwBvv+sZpupNp6f6n0YHDgB0mwb1fnRq2BBeiYLKvTmlbDcBoeqK9Tn0yZAUs7coAwTYDyWpDbcF31P967iB+nTWLE3ZEEhhBAxYECC5+jCPH/2V7ae8qrTdAAJGVZ/QIyHv1b554U+T2KUdqXK/LL1vuxwGN+fpA3Gw+DKe5r5kJBkgdRF5KYCuHGUeV//u9O3AUjLzgNO8GHZesrLess6e7HYQjJtuPfiK9H+GHflYdqSnmC8b5GFOz/3lW1fItmxSYKlEEI8JAa2zzPVRumGjZQuyyEheF7XJc43AU1t3mDJTdoDnodZHrjRfltngdv89Yw7/PyuNm74HjafueTdRkJSUHb7AJR8zNW3n2Bf+jRWXAyc9fGKaYxNz2Rs+lpcOVt1+0yFEELEngHs8ySk3xGA1EV9W5cvE20GRpmH3dfrR08a5w3mHW009601ofa6aX17DssXH+bn6av4GCDrCZLavuKLkIX3s2Lv/+TqD8cD+x9UC4QQQvSTAQmezWcu0ZGTQ0KqjdINNnX6Ncd6Pmzp61ot2DZsxL82JdO0hH8JQNM+nE052FJDX+86egJjA4YiqeDzcy+R3HLIGzgpZOfip2g7/Vvfcy3/PCGEELFvYMq2Tft4V+m7fFC6TuM47S/HXnNEH+hcVe/h6tJO6WugVC5T2crcJEiybQ24tKR8obcc6+3X3Ir19FrvSFu0/Z3eeZa9meo8/2UqLzEeGG+/zNWGz9m52Gj7hBBC9IchaWMzvhnsRhiivVTl1/seXJlVCCGEiJLcJEEIIYQwSIKnEEIIYdDDV7YVQgghBplknkIIIYRBEjyFEEIIgyR4CiGEEAZJ8BRCCCEMkuAphBBCGCTBUwghhDBIgqcQQghhkARPIYQQwiAJnkIIIYRBj2SP/9fBboMQQgjxUJHb8wkhhBAGSdlWCCGEMEiCpxBCCGGQBE8hhBDCIAmeQgghhEESPIUQQgiDJHgKIYQQBknwFEIIIQyS4CmEEEIYJMFTCCGEMOj/A9ZT5wL9Lw2aAAAAAElFTkSuQmCC;" vertex="1" parent="1">
                    <mxGeometry x="190" y="60" width="360" height="104.97" as="geometry"/>
                </mxCell>
                <mxCell id="42" value="" style="shape=image;verticalLabelPosition=bottom;labelBackgroundColor=default;verticalAlign=top;aspect=fixed;imageAspect=0;image=data:image/png,iVBORw0KGgoAAAANSUhEUgAAAZ0AAACtCAYAAABr0qK7AAAgAElEQVR4nO3db0wjaZ4f8O9cRokuymWyNymmRSDdMMP1xQ4jQSt0QDntKCvZftFQWJqNlJVWGckYiUN7QvAiNZ55Ocs4kUAoG64kjKWJJroXNyOZAl4YS3vaaFcmzQnQrWV0vVzTPWeOY6jdu/TtXjY3ymbyov49Vf5D2UDZPf39SC01FK56qlx+fs/zewp+L93pe+NLEBERBeDX2t0AIiJ6cbz8L8L/st1tICKiF8RLr//nnzC9RkREgXj5Z4//Z7vbQEREL4iX/9///aLdbSAiohcEHyQgIqLAMOgQEVFgGHSIiCgwDDpERBQYBh0iIgpM24LON3/3W3i2nsBPfvf1pn7+2fsjDX7qdXy85Nnn25NNHYeIiG7Oyze7+9fx8dJbmHjF/PLpU2x+7Y7zNYDXht/Cs/W3jC+ePcXUwvfxSY09fXL4Ob47fAev3enGBwDer3PEzU9LuJN4C8/WB/G9qY26P0dERMG7NOj8o3/w9/DGP/31utvPf/4Fzv/mkt/1eVrC9zCI7whfv/LBnutHPng/ge98zfpqBD9cH8SbNXf2Kr6znnD2BeDzgx/gt37/MYDH+GT3MT7Z3TP2tz4J5Bs3jYiIgnNp0PmP//af49/0/ZO628//5gv8+/9evtZG2RrMfKoZgQr5LH7nU+D9D7J4H0ZajoiIOsOlazqPf/p/Gm7/k7/8RUsH/uD9hLFGc+k6jWUEP/T8rLGPb+HjUQCjP8N/yf8Mb8YSeLb0DXzT8+rPLx631E4iIro+lwadj/74L/H4p7+sue1vv/gV/uuPTls/+tMSvve00Q/8Bn5vyQo0e/gfTwGYazrACL5+B8Czz7G5C2D3MT75dAOvTP0Am7iD9RqBh4iI2svXgwTpP/pzZP7d3ervf/8z/OLvfnXtjXL8Q7z2CoBX3sDHo3vY/KtfAndexdffBvAXv4HXAOCvf45PvA8sAADuYH09YX/1ZiyBZzFnq7MOREREQfEVdP7sp/8b/+2Pz/Ef/tUt+3s/evK/8KMnz26sYQCAv/4z/NZuN57FXsXEN0bw7e8bT7C9+dsj+GbXa3gNwI//1Hgg4dsLNQLI25N4Fnu1ybUhIiK6Kb5/T0dMs/3tF7/Cf/qjP/d/lDuD+M6dJr4/asxiPv+rnwGflrD5DEZabfcpHpr//73f/HUAv8TTv6h30Nfx8eirxn9fuYP19UkzLUdERO3S1C+HzmnHmNs4xtQf/mlzabV6azdPS3hlKlv1+DT+mRl0LozHoDcf/xLAq/j624/x7YUsXpk6A8T1nCoj+OG6kW77cT6LqQPj9d9ZT+CHb/tvNhERXa+mfjn0F3/3K/zJWTNPqz0W0l57eB+v4+MlY2pjPdJseB23v+b835ihOLOYT37/D9ypsbe78SaAzx8/9aTMhLUdV0rtD5x1n1gCz367+veEiIjo5t3wXyS4jPuXQH+cN4LEJ5/ewU++8XNsDn0LzxL1fzHV+msGnx/8AH/4m28ZqbpnTzE1VWv9xgyAb0/iWWwQP3x7D7/z6Y2cFBER1fHSP06sf9nuRhAR0YuBf2WaiIgCw6BDRESBYdAhIqLAMOgQEVFgGHSIiCgwL//ay3+/3W0gIqIXxMuvvv6v290GIiJ6Qbx0p+8N/p4OEREFgms6REQUGAYdIiIKDIMOEREFhkGHiIgCw6BDRESBYdAhIqLAMOgQEVFgXqygE1/F3omGVLvbQUT0ggou6CganjxchSx8K6UdY08dN4PBMZ54/z1chQwF27W2WcGjxmu3ldpNkCNDwM46FsXvqUXhWE2dkN2ueserbRzqQ6ete+q4u41We2q1yXWuRajxphpMRNR2nTHTyc1ipH8Aff0DyJQAfWceff0D6Ls/Cw1pPDC3ze3oQClrbOuXheBxhIz5M31rRwhP1+qQFSSjwH5hy/5OSjvGSvemsd9mxFexdzKBykIW5SZPVVbfxb0D8/wWCkD0XaetioaV4UPMWed7MIQVzYpoCraXhrC/YJ7nwiHuLXHWRkTPl84IOtcpvYsyJPTe9XxfGUW4tImZnPOtRXkAfXK6+WPkZjHSP+bal1/azBhGZszAl8tjX7faOg41HkI5NwsNxtexYQkYHEUKgKxOuNovR4YgIYSxpmZZRETtFWzQkSJYEdJgycEbOIYyijCOUHTFknGocQn5j1oIMDcpHsM9yWprGL2SjsojwEjdLaM3lzUCaBwId0vQz4x5lTVDy5SArtvjDQ5ARNRZgg06esFOHVmptOsRQtIKZtNAxpV6A6BMIYZD5FuYmdwcBdtLEVysedp610rdDeBBVYwMQ314jMmz+dZmaEREbfZyuxtwPY6qA40gNRpCOSebaatOoGD7JAGsiYGljIqeQGy6B5n+MeNc4r3ogo5iDihHdCSjCfSuDWAkDQDj6L0FXOxu1TsIEVHH+eqt6XjFVzF5q4BMSxMD60mza1ywj69iryrgAMAW8gc6UNq1g2fqnQgk82utcAhdTBsqU4hJ3jQiEVFn+8oHndQ7EeAgX3OWYz2evBKVnPUmzc/KvPW4dAJhAOFp/48wp96JQLJf4340WpsZQwYJZ80LWSeNlpvFyBoapxGJiDrcV7uIW3wVe0s92GDnTETUEb7aQYeIiDrKVz69RkREnYNBh4iIAsOgQ0REgWHQISKiwDDoEBFRYBh0iIgoMAw6REQUGAYdIiIKDIMOEREFhkGHiIgCw6BDRESBYdAhIqLAMOjQzVA0p3RDnXIRKe2aaxX5cLPHNOovbdc43Xaca7NS2jH2VJY/B2DWvbLKj/grW0L+BB50jA+f86/WB7R5CrZv4sZQNLvWjV9WjR7vvxfuw5yW0dc/gLkdPdDDymrRZ02kGxCP4R5aLRhINbXwGfSj8X0yDlWJ4GJtAH39A+jrH8OMn1L34kDLd22uF0+A5arHoT5cRgwFzPXPdlDp6OulzYyZ56Zg+2QClQWfN+wLaFEeCLzO0U0e0ygYOF/z3m7HuVKrwuiVdFQeNfMaBdvTQKbfep/HoT58F2o8zc+/R3AznXgM96QjZO7XCzhWaWh3NU3AGJXsqatmtU53msKYOSUQhoTYUvV2p8pn9YwjpR1jWxWm0fYxzddMh5yKotcxcomvYs8zI5PVon1c4zwV4Tp4Zm+uKX+NWaI50mpu9ui+Pq5rF1/F3sNVpITZm3P9FGyfaEj5SKPVvg7V77Oj8b1QcwZp7nMlKgGDibrb6x7TM0p1rqFxnmrNa+C+jmODR9iY2aq7z6rjera79ut5r/3dt57r1+S1NcSc+8G1rcF9gnGoD4tQlTpt8pyL9z5xZT+u5TPozXwIXze8T8SKwEJ/4uuYZVT0EJLWzypTiEk6Kgw4VYILOnd7IOmnKNfcaMyC7h3Mm9PZAWTOI1gR3mwpGgHM6W6mFMKk+SFclAfQ159FGTryC9Z0WBZGGxOo2N+fx/7wu66OPBwdwv6CsS2PCJIKAKTxoH8AfWtHgF7AnNkmu3R0q3Kz2ChJuBexOpBxxIYllHNOIJaiCfTmBszUFBB7x7oGCraXerBhtaU/C0xfxxqBea791jEl+9oaDYog2b1pbF8oANEp4ZghJOOn5vXJojw44S/FmZvFiHV9q5gz4vOs3aY+YaCizYw53+/P4sJqj7nPuR0dKDmvHbGCQKNjKppZ/nvAPs+uabHTCiE2fGicZ9U1MMjqBLp21t2zGTPFaO3TnWgchxqXhHtWaGt8FXtL1n1pneeyazBR+769TONrCwBSdMj8vHj3e8l9AgmxOPDd/urXpt4RU1Xuz5GsFjF55nzu5w6G8J46jks/g96A7nftpeF9Yp2jpz/x9bnfwsz9AafcfPwUc6xYXFNgQUe+LTXYGkav5B4lLu4eAbd6ndFSKYsH5ntfPtMhdYcvP2g8hnuSOANaRkyS0HvX+RF950Nz+ruFyjnQddvf2ot3xO13drH4UQEYjhnnVWsNQDhPrXAI3boGyijCCCFpH9MYjfWKHzKzk3vQVGx0j3xXopLn2h4hY33ocnns6+IxdeTTVqeVRrHkvrYtsWbE9T7ors6mxjVogXxbgi4GDOs87XMRzjNXwUXVMRUko8B+YQv+baFybtybVTOnuz2QSptCWiaNYsl9bza+b40O0BtQLr22Dfd72X0CYfBkHF/8vIana80YjEGXFF1uuN+axIBu/7v5VHb9z71xfZLIOoPmDn9wpF0CW9PRPtOxEu1BGAh2PUcvYK5uSq91ztpNk3J57CvLxijw9hBw8KH//ZSyV59tecjqu651NlktYqX7Wg9xjRRsT4dQXrM6NGPdrO2UUYRLm3jQZIdnrfMYHdnyjby/1+Uq94n9WTEHDO7PpI58K+ueimak3lxa3FcT6n7u7eUD4/1blOfR+3AZYwqAznxL2ya49Fp6HXkx5+li5EOd6fo41HgI+kHeZ4dcRkWvMcrOVXAhRczpegsenUKXjEB5fbYwkztCeFRDMqq71wA8jIVp8xo8OoU+mGg8o2phTSfcLQHnFfvhh2S0wYxUmUIMh8jX+lDHVzE5eITiVT9guTz2XfeCeIxedMFZ4JXViar3RvtMd8+QfdA+0yGJKTNlCjHJ77mYabKPWj9xbWbMSL9Z7X50Cl1MVcZXMTmoNzWTqvmIdqNre4mm7pN60rKRurI/U+ZsT2nwdFq9z+ClMx2nP0hpiWu5Ty4nzoDD6G3hEr0IAnxkegsz9+eRv5WoMT3dwsx9I29tp8HOs06O28++c0fGFN61yJnGg4UCIEzfm/pdidwsNkpCSuu6HoFM76I8GEK4tFud8xUWN5PIutck1sRzrLdQ3JzFjwrQ7WNOoLLjXfMQzn8angdBhNTl0hD2F5wctpWGcC3Y2ousZopMXCS2z8V7LwjbzDUx65gr3YfIe5/ITq8jD2fh2U5dNTpmWsbcjiScp4T8gs98fKNA3PiF7oX5pSHs2ym8WYys6cK1jeBirbkRfPlMBxAyRtq2Btf2EpffJ/V4Hlw4SQBrzrVdlOdd71fVoKmlz2AamR3d/qxMnmX93yet8r5nJwl07cw3mep+Mbx0p++NL9vdiBePgu2TBLDmXn8xUhabnZNiia9ib6kHGzUXRPlIuLUw35vzsY6maMbi8g2keusebxrIcDGbOkyAv6dDFlmdQFgvYK5DYgu1agsz9/3NxlOjIeB8N4CAYz6hJhnrGww41GkYdIJkL34eIfMV/gVZMqS0YyQHzS/0AubuBzHK8B8IidqB6TUiIgoM/+AnEREFhkGHiIgCw6BDRESBYdAhIqLAMOgQEVFgGHSIiCgwDDpERBQYBh0iIgoMgw4REQWGQYeIiALDoPMCSGnX8KfbiYiuQeBBxygu1XyZ58YUbPupj970brWWatbIavH6au/4ZtQtuZ7r6VN8FXs169N7asVcdz0iInpuBRh0zBritwqYE6r9scjR82ocqjKE/QXjfZzbgVABMo0HnqqOmRKgn5Xb3GYiarfggo5dQ7zen/T3VBgUZhiyWsSeuiqMnp3qn8bMKYGwWMXSVR3UPeoW00wp7RjbqjBat49pvkasMnmNI3XXbM/neRrN0qpmD3vquFmlcxkxCUJlUe/ML+bst2r2Zl77pmZ1W5i57xRw0wqH9Ut7m6WsG5XmJqIXQ3BB524PJP0Utce6RuGpewfzzsj4PIIVoZOXohFgzRo1O3XeF+UBo+46dOQXrJG1VS1xHOrDCVTs789jf/hdV2ccjlqjdaNsblIB7JH62pFRB8UasV9DRU9ZLWLyzDnPuYMhvCcEwnrnifgq9qYl+xzndnSgZJSz1mbGjPbrQHmtVr14QIoOmddBPM/rI0eGINUqvw0g9U4E2FlnQTEiCi7oyLelBlvD6JXcI+HF3SPgVq8z8i5l7VRc+UyH1F1zTO0Wj+GeJM6AlhGTJPTedX5E3/nQ7Jy3UDkHum77W3A3ZhfNrk2NIzYsQRJq1K9EJfe5NHOe4vW5ROPz3MLM/QH0tVpKWdGwEtWRqRWUOcshIkFglUO1z3SsRI30S6AVM/XCjdSl12bGWtynUUZYnIX4kstjX4kYAXQJ6Jjqo4qGJ9NAxp5disahKhFgZ56zHCICEGR6Lb2OvB5Csua6SBkVXUglYRxqPAT9IO+zUy2jortnMACAXAUXUsSVvmrKo9P66xQt2ULlXBIW3JugTCF2nhUW572dfHMzNbdW1nTM2V7dgGO2WeIsh4gcAT69toWZ+/PI30rUSEttYeZ+Fhd22mkZsXNjvcL3vnNHwiK6tQCfxoOFAiCks6oW5xvJzWKjFEKylQcJBmudJ7AoG2sqK82m5tLrVdfOey6LH4nnegOPkLsoSEYlAML1cT2oYQ4cuJZDRIKX7vS98WW7G0E+KBqexE+FVKHz8IX/4ExE1F78iwTPieoHMcLolYCLzxhwiOj5wZnOc8OY2cSE2KPvcJZDRM8XBh0iIgoM02tERBQYBh0iIgoMgw4REQWGQYeIiALDoENERIFh0CEiosAw6BARUWAYdIiIKDAMOkREFBgGHSIiCgyDDhERBSa4oKNonlowTdZ7UbSmi4xdVUo7rlkTp21c19BdS+dqbTWLuDVTa+iKXO311imKr2Kv3n3SaJv3Hmum/lGrx/RFwfZJdZE8b8nzPZ/FBr2vc7XJ1dbmC/PVvobm/SFcT+P9M+4X773XMZ8X6kjBznT0AuasypdrOmJLN11orHWyWkQSYqXOATxIt7NFCrangYzZlkzJXYV1UXba2bd2hHC8ic4mHsO98ywypRDGgugoFE24tlmUBxNCB6Vge2kI+wvmuSwc4t6SFQzHoSrOtrkduKuwpmXh/cqiPDjh8/66wjEvNQ71YQIoHbm/HV/Fe8OHzuehP4uL6JT/oF8S702h/HluFiP2942CgUmf76lTCVa4l2Trpj9CGaNm+xSM4Qhlc4t97y0UoOPIfn17Py/UqdqXXkvLyJQk3IuYo7u6IzRzlDgdAiSh4qY4ivW8tmqEZY7emhl5hbu99WsE8VXsibMC19cKtk80qMJo1O8ItrE0HghloRd3j4BbvTU7P/m2BJxXfJb6BuTIEC5201jcPUJ41HNdH64iVedcUtoxthXz/WmmKmtaFjqzNIolp8y2rE4gXNq0O1E5MgQJVjDcwsx9p4PVCof1y4nHe9EFHZVcrY2e87/yMc1rUGNmJavvInaexYNdzwZPKXVZnUBYP7U7cmO3zd+3bmH0Sjoqj/z8rFEJtrxWq/S4UbupuAvjmiijwK73hIj8aeuaTvlMh9RtfnxdI7QBZM6tEVoaD8zRu2umZHdaCraXerAhjBgxffU00aJsjMBbCxohxKxR7EIBaGYE61NqNAT9IC8EFqfzX4nqyMh+h5njiA3rKKYBpHdRHhx1t1WKINm9aY9kvecSnh5FUZh9TTZ9rRSMDerYLxh1gcLdEvQzo+tNacdY6d5ERghKIjkyBKm06+ok7VTPUgQXNTvQalc9Zl3xVbxX971I40H/PPaHjfLiK92b6LOrwvoglkP3BDsn/ZZA186HziyoYVt70YUj4z4Q7iVXei69C4wqSI0CxXQZFV1Cb4dmKqhzddCDBOKI+RjJwdof+uqXjSKMEJL2axMIw/NhMNMuzU33zWAndAz+R5w68mmzA8lVcOFtzxXJahHJWwV811XAzWrvAPrWgKTfWYcyhRisEXYaxaoU25HTaeby2Pd0NPrOujP7kgeaLCpnpJ6qO8Yw1IfHmDybFwYX3nZrNYOrk2bMAtPNvGetH9O+9q7vW2m5eoFPwfaJUW68r38e+VuJ6vWXOvetNjPmSSMmXAMjZ7tx7zY/aBIGep7vZ84mMHm27i/oEtXQ1qDjHmEmEBby1JlSEzsquddeXDnuK9vCzP0W1kluiKwWsTJ8iLlGo+L0OvI+R6GpUXfaMjkId4rtxhiVUO8duKufls90SNEEenNWABtH7y1PWW5FM9ceGs1k0sjs6L4GLtd3TIEyhZgkIbZkDoaE9PC2maIK69bAYQsz97MoS0OINT04MdKTtW1hJnfkZBMaaTQ4iveiy0z9aTNjrFZLV9K2oCOrRSQHj7AhfMitAIT4KiYHPS94dFo7f//oFLprIbqGK+fGzXUSF+sDOg5ViaDBClCtBtV8mukyKe348oADmB2en/UMI7WVXxjwjJxHa8+SlCnEcIj8lQO6M8r3dmBa4RC6neaxzsX52lnsvqzzN9YoXIGjjqsfs8aajuuhBnd62J65iPdzvBddVbv1cd/GVzEppCfdxqHGQ87nqqE0iiWpyYckiJr3cqBHM0d6K4D5AbQ6zy3M5KbwZHoZT06WARwhv6Pjnvja3Cw23jlG8uQYScCY3chpYy3oroYn08d4Mm3+rF64vGNuyBiFx8RIIu7TasvSMZ4sAeW1LMrTo03sv4yKDoTNTsdXO+1ALFxDAOW1ATxIK9g+STgdmOvaNqCMIqwfIuMKImVU9AQm1XEsFgCYqcskAOAIGT/7vYSsThhtjVrvt7VvGYvW++k6ptXZG4EEkIQ2AfqOEbxSmjFTM7+L/MKAvxnvFY7ZsrSMudtFrAj7LK/5a6+sFrEStW5OHfkFZ2bv3mbsc8RnWnlRHgC0Y9f9hdIuNPTivZqvkNB719++iSwv3el748t2N+JF5CtN1m7xVewt9WDDb0qJiOgSHfQgwQvCfLy74wMOEdENCDa9RkYq59oeciAier4wvUZERIFheo2IiALDoENERIFh0CEiosAw6BARUWAYdIiIKDAMOkREFBgGHSIiCgyDDhERBYZBh4iIAsOgQ0REgWHQqcf8w5xVJXtF11CnJzjjUB82X8OHiOg6BRh0FGyfFKFalQnNTr39HXadgmq5WYzULNnbqYyg0v7r6ZOitRYAxcGAeD+ZUppT8txVVI2IOkKbZjpGtc2Lter674FTRtG1k0UeLZQKrlPDvjOZZbef63IK41CVIeyblU7nduCqdCmrRSQhlDxHAnvq5eWqiSg4bQk6Kc0oVeztrF2jVM8oWFaLzrYTzSmnHF/F3sNVpITtzXQ0qVEJ+4U08gfAvYjf15mpqhqjbVktVrU9pbnb1Og8W0mDGdfGqHQanq7RLjMNWD36V7B9okE1r922Ys76vNf3xGmvaybl2eY9x9pfm8eYDtmVZP3PSrYwc9+pkqkVDoUS5gqSUSD/kV1zGmODgDQcYzqRqIMEH3QiGpLIVpX6ldUiJs/m7VHq3MEQ3rM6LUXDSvemUG8eSIqdlBRB0tq+UACiU06n2ZCCsVuHyOeMDgy+Oyhz1tCfhbf6vDazibIkzpoUjAk17BueZ4u0mTH09c8jrxvliY19O52zNSOb29FrvDqEWPcm5nZ0hKcnUFnIogwJvXGj7dtLPdiwrnt/Fpg2A1J8FXtLzqyjrz+Li+iyj/ReGg+stKVewJy1b9kMFmKAbJBGAwA5MgSptGtUNY33ogs6KjmzbScTqKwVhKBERJ0g4KAjIRYN1fj+OGLDEqTost3RrEQlSN1Gd5EaDQGDCacTmg4Bt3qFAHGEjNVp5fLY161OE1WdmDj6ltUJhM8rRropl8d+Kym2KmlkdoRZkzKKcGnTDACNz9MQdBpMd2YHdjvhtB0hJO3rl0DYCkh3eyC5fj6NYgnoun3FdJYZIN3/xtztAoyBSFR33nfh+0+WerDRP4aZR1drChFdv4Arh+rIL3wIKMvYU8ue2Y6O/EKNzsVUbnX9Jy2jr+brjAAAKYEnJwmnFZFxILdV6wW+aYVDvKfEIGML4dEQyrvi/KnxeXacUtaZhYhuao1e0YxBhYvnmikankwDmX7ZmOUAQK6Ci6UIkvEC5vrNgH23B5J+WjUbJaL2acOazhZm7ntTMVuonEuuRWFR+UxHeFrzlzJTphCDkTJrKB7DPekIGXFEvVBoIsXWQG4WG+dDiMUVjN0qIGP32Y3P09Dqo81bqJxfw0xD9OgU+mCidsrs0Sn0wQnX04iTQhoRgDODUzQkB2u8vlbq65KZjqwWqwOO8UIUS4B+kDdniONQ4yHhayLqBG16ei2NBwsFdE076a5FeR55CAvLwqK1NjOGTElM83gfFhC2TQMZH6kp13qAJVfBhRRBUoGTlhMXvO1AYC24G+mm2FL1usPiro7YUgLIudvS6DyvavGjAmCn7pz2WA9hrEQlJ03pZ+E+N4uRtSPh4QThGuRmMbKmm+d+jCdLEVysOcFh8aMCdOtY8VNkvOtJuVlsiO+prwcJFCSjElzv94n7Htofts7feFjFu3ZIRO310p2+N75sdyOuJL6KvaUebFSNfImIqNPwLxIQEVFgGHSIiCgwz396jYiInhuc6RARUWAYdIiIKDAMOkREFBgGHSIiCgyDDhERBYZBh4iIAsOgQ0REgWHQISKiwDDoEBFRYBh0iIgoMAw6V2GWP7iu0gStM2rwtL8dPsVXsectleDVMdeWiK5T4EEnpQm1WTq9U1G0Foqp0aVysxjpH0Df2lG7W0JEAQuwXPU41IfLiEEoJ/y8q1sKm66M15boKym4mY5VHrpuVU+zTHONtIusFrGnrprVOo/x5EQoXR1fxd7DVahavdmTIrzOW3EUToVQ12vN14hVQ13VLcW2uiuG2m2qc8yUdoxttVF6qdVy1Q6rUqj3uLWurfjz9a5tSthedf3q8VwD/+dT/9rKarFqPynN/3kSUfsFF3Tu9kDST1GuudGYBd07mEdf/wD6+geQOY9gRShhLEUjwJq5rRTCpNj5SRHEkDVeu3aEcNzqbMahPpxAZWHA3O889offdToyRcOTaQl5e/sAHqQBII0HVvpHL2DO3NYnW0PvLczcH0Bff7b6fOKr2Fsawr69zywuosuuQBiOWtuN0tXJa0wxymoRK8OHmOsfsEs1y2oRk2fOtZ07GMJ71vVTNKx0b9rb+taApFg6WoogaW1fKADRKScoNWKl0IT309951r+22swmytIQYnYgUjA2qGO/4OM8iagjBG3ZvE0AAAKESURBVBZ05NtSg61h9EpH2BDq2S/uHgG3ep2RailrBgSgfKZD6g4Lrz9CxgoIj06hSz0IA+bsSkJsyRr9LiMmSei9a/xoajQEfedDzOSu5RQNd3sglTaFfaZRLAFdt53OzznmFirn7m12p1t3RlhfePrYCCCu144jNixBii7bM4CVqGRfv9RoCBhMOLOD6ZD7uovXNpfHvi6hVwzadWeR7hlmctB7nq1II7MD3ItYAXMUYftaNz5PIuoMga3paJ/pWIkawSDQ9Ry9gLkWOvDnUXltHpX4MvbUsj3LMejIL4zVDa7ltQE7oDelwbpLSksgXMras8OUdozJFg7hpRUO8Z4Sg4wthEdDKO+KCbTG50lE7Rdcei29jrwecqdubGVUdDFlNg41HoJ+kL9asMhVcCFF6qZYFnePIDVKF4mzJr8enUIfnHBSePFVTAopoMtdZU1nCzP3vem8LVTOJcSU2vsrn+kIT2v+UmbKFGI4RP7STn0cvbcA/cxMkMVXMTno8xQuk5vFxvkQYnEFY7cKyNhBr/F5ElFnCPCR6S3M3J9H/lYC1Qv3Tmdpp8HOs57ReivSeLBQAISUi2uhPC1jbkdCst4j3LlZbJRCznY7YFqpowTCsNJ35qJ3bhYja7qT0luK4GItyNG3cc5d0057F2Vj7WilxnlqM2PIiOdYlSYTtk2jwYMgoi3M5I6cVNdSD/Z3dGezlZYTH9Swg2yDa2ta3NURW0oAOXdbGp0nEXWGl+70vfFluxtBHSq+ir2lHmz0y1hsd1uI6CuBf5GAiIgCw6BDRESBYXqNiIgCw5kOEREFhkGHiIgCw6BDRESBYdAhIqLAMOgQEVFgGHSIiCgw/x/Mjau4iDybIwAAAABJRU5ErkJggg==;" vertex="1" parent="1">
                    <mxGeometry x="560" y="40" width="413" height="173" as="geometry"/>
                </mxCell>
            </root>
        </mxGraphModel>
    </diagram>
</mxfile>